<svg xmlns="http://www.w3.org/2000/svg" width="315.451" height="174.743" viewBox="0 0 315.451 174.743">
  <defs>
    <style>
      .cls-1 {
        fill: #f1e6ff;
      }

      .cls-2 {
        fill: #82b378;
      }

      .cls-3 {
        fill: #ffb27d;
      }

      .cls-4 {
        fill: #bc3f3f;
      }

      .cls-5 {
        fill: #4a75cb;
      }

      .cls-6 {
        fill: #233862;
      }

      .cls-7 {
        fill: #ed985f;
      }

      .cls-8 {
        fill: #2c3a64;
      }

      .cls-9 {
        fill: #2b478b;
      }

      .cls-10 {
        fill: #739af0;
      }

      .cls-11 {
        fill: #ee9849;
      }

      .cls-12 {
        fill: #bbd4ff;
      }

      .cls-13 {
        fill: #678fe5;
      }

      .cls-14 {
        fill: #b56f40;
      }

      .cls-15 {
        fill: #99592e;
      }

      .cls-16 {
        fill: #74acbe;
      }

      .cls-17 {
        fill: #578e9b;
      }

      .cls-18 {
        fill: #e58638;
      }

      .cls-19 {
        fill: #fff0e6;
      }

      .cls-20 {
        fill: #163560;
      }

      .cls-21 {
        fill: #5fabb7;
      }

      .cls-22 {
        fill: #ef9e67;
      }

      .cls-23 {
        fill: #a53d38;
      }

      .cls-24 {
        fill: #c45446;
      }

      .cls-25 {
        fill: #912f2f;
      }

      .cls-26 {
        fill: #d9935c;
      }

      .cls-27 {
        fill: #f1a34f;
      }

      .cls-28, .cls-33 {
        fill: #d86713;
      }

      .cls-29 {
        fill: #cb7d45;
      }

      .cls-30 {
        fill: #b64c41;
      }

      .cls-31 {
        fill: #466aa5;
      }

      .cls-32 {
        fill: #d37129;
      }

      .cls-33 {
        opacity: 0.4;
      }

      .cls-34 {
        fill: #ffb93e;
      }

      .cls-35 {
        fill: #ffa412;
      }

      .cls-36 {
        fill: #d17a33;
      }

      .cls-37 {
        fill: #d2e4ff;
      }

      .cls-38 {
        fill: #6f35a5;
      }
    </style>
  </defs>
  <g id="Grupo_81" data-name="Grupo 81" transform="translate(-108.62 -170.037)">
    <path id="Trazado_140" data-name="Trazado 140" class="cls-1" d="M127.964,344.693s-38.757-41.612-6.554-86.664c28.572-39.973,61.884-37.24,86.325-21.019,10.41,6.909,40.422.852,65.966-39.822C308.535,141.72,429.286,175.361,407.27,260.7c-10.654,41.3,32.426,42.8,10.475,84.08Z" transform="translate(0)"/>
    <path id="Trazado_141" data-name="Trazado 141" class="cls-2" d="M2428.493,1474.483h-12.279c-.658-.558.455-1.826,1.618-1.911a7.172,7.172,0,0,1,1.875.222c.169-2.244,1.134-12.334,4.771-11.929,4.089.454,0,4.444-1.156,6.805a56.063,56.063,0,0,0-2.173,5.442c.332.072.676.142,1.026.207.542-1.664,2.559-7.262,5.124-6.936,3.011.382,1.8,2.626-.333,3.958-1.566.98-3.488,2.372-4.4,3.045a13.048,13.048,0,0,0,2.4.192A5.175,5.175,0,0,1,2428.493,1474.483Z" transform="translate(-2020.387 -1130.255)"/>
    <path id="Trazado_142" data-name="Trazado 142" class="cls-2" d="M330.347,1503.467c-.488-.766-1.955-2.755-3.91-2.491-2.13.287,2.352,1.691,3.725,2.5a2.279,2.279,0,0,1-.759-.089c-.917-.327-2.489.3-2.991.52h8.734a1.384,1.384,0,0,0-.624-.8,1.56,1.56,0,0,0-.8-.072c.519-.612.88-2.568-.566-2.065-1.056.368-1.053,1.563-.95,2.27-.225.035-.453.071-.678.1-.435-2.216-1.973-8.711-5.09-8.885-3.16-.176,2.68,6.736,4.625,8.947C330.809,1503.435,330.569,1503.457,330.347,1503.467Z" transform="translate(-189.915 -1159.677)"/>
    <g id="Grupo_52" data-name="Grupo 52" transform="translate(346.895 221.683)">
      <path id="Trazado_143" data-name="Trazado 143" class="cls-3" d="M2105.636,1448.9l-.95,3.995-1.26,5.3h-3.938l-.234-5.075-.182-3.915Z" transform="translate(-2089.761 -1341.469)"/>
      <path id="Trazado_144" data-name="Trazado 144" class="cls-4" d="M2212.746,737.708s3.115-3.334,5.142-.72a27.449,27.449,0,0,0,7.38,6.39c3.109,2.011-2.747,17.771-6.641,17.447S2198.843,748.077,2212.746,737.708Z" transform="translate(-2184.392 -717.237)"/>
      <path id="Trazado_145" data-name="Trazado 145" class="cls-5" d="M2127.43,725.344c.778-.581,7.939-3.04,14.921-.622s-5.408,9.154-5.408,9.154l-4.015.173Z" transform="translate(-2114.591 -706.457)"/>
      <path id="Trazado_146" data-name="Trazado 146" class="cls-6" d="M2089.9,1529.427a10.482,10.482,0,0,1,.275-2.569c.275-.641,1.282-3.251,1.282-3.251h3.938a24.2,24.2,0,0,1,.779,3.16c.045.778,0,2.66,0,2.66Z" transform="translate(-2081.727 -1406.886)"/>
      <path id="Trazado_147" data-name="Trazado 147" class="cls-6" d="M2246.608,1529.427a10.491,10.491,0,0,0-.275-2.569c-.275-.641-1.282-3.251-1.282-3.251h-3.938a24.128,24.128,0,0,0-.778,3.16c-.046.778,0,2.66,0,2.66Z" transform="translate(-2213.434 -1406.886)"/>
      <path id="Trazado_148" data-name="Trazado 148" class="cls-3" d="M2128.619,684.7a36.876,36.876,0,0,1-.688,6.216l-4.349,9.374,16.37-3.89-3.9-5.394s-1.179-5.756-.561-7.885S2128.619,684.7,2128.619,684.7Z" transform="translate(-2111.222 -670.371)"/>
      <path id="Trazado_149" data-name="Trazado 149" class="cls-7" d="M2163.885,705.231s1.294,3.116,3.733,3.048,2.993-2.826,2.993-2.826Z" transform="translate(-2146.511 -690.306)"/>
      <path id="Trazado_150" data-name="Trazado 150" class="cls-8" d="M2140.673,597.643a39.087,39.087,0,0,0-1.337-5.121c-.549-1.191-1.007-6.5,5.083-6.777a7.015,7.015,0,0,0,3.617-.5s0,.778-.321,1.053a4.048,4.048,0,0,1,3.755,1.328c1.649,1.832-1.1,8.243-.961,9.753Z" transform="translate(-2124.755 -585.241)"/>
      <path id="Trazado_151" data-name="Trazado 151" class="cls-3" d="M2156.32,637.144c-1.767-.031-5.019-2.384-5.019-5.3V627.3a1.814,1.814,0,0,1,1.648-1.934h6.74a1.814,1.814,0,0,1,1.649,1.934v4.289C2161.339,634.644,2158.346,637.179,2156.32,637.144Z" transform="translate(-2135.493 -620.375)"/>
      <path id="Trazado_152" data-name="Trazado 152" class="cls-8" d="M2149.718,622.48s.009-2.732,2.173-3.152,7.006,1.331,7.693-.661-9.36-1.957-9.866-.687S2149.718,622.48,2149.718,622.48Z" transform="translate(-2133.91 -613.127)"/>
      <path id="Trazado_153" data-name="Trazado 153" class="cls-9" d="M2093.692,1034.559c1.083-3.373,1.062,13.964-3.289,33.464-.664,2.976-2.151,10.153-3.218,17.1h-8.914c-.123-5.609-.724-13.438-1.1-19.3a127.657,127.657,0,0,1,1.835-32.177Z" transform="translate(-2070.34 -977.867)"/>
      <path id="Trazado_154" data-name="Trazado 154" class="cls-9" d="M2185.271,1065.563c-.1,5.62-1.239,13.087-1.343,18.56h-9.043c-.607-3.973-1.572-8.064-2.266-11.364a31.345,31.345,0,0,1-.844-5.509c.01-2.387-1.5-9.271-2.4-15.341,0-.009,0-.017,0-.025-.035-.233-.069-.466-.1-.7a100.74,100.74,0,0,1-.78-16.884l15.258-.953A314.642,314.642,0,0,1,2185.271,1065.563Z" transform="translate(-2150.481 -977.611)"/>
      <path id="Trazado_155" data-name="Trazado 155" class="cls-6" d="M2084.149,1090.481s3.433,4.159,12.76,3.559,13.776-2.224,13.776-2.224Z" transform="translate(-2076.694 -1027.635)"/>
      <path id="Trazado_156" data-name="Trazado 156" class="cls-10" d="M2106.276,793.529c-3.047.414-23.772,1.491-26.536-1.336s4.511-41.393,4.511-41.393.824-.238,2.214-.5c.708-.133,1.563-.272,2.531-.389.012.3.251,4.847,4.026,6.725,0,0,4.534-1.816,4.089-6.652,0-.057-.012-.111-.019-.166.6.065,1.218.149,1.833.255a25.923,25.923,0,0,1,3.751.929S2109.323,793.115,2106.276,793.529Z" transform="translate(-2072.285 -729.348)"/>
      <path id="Trazado_157" data-name="Trazado 157" class="cls-10" d="M2031.843,780.661c-.123.16.7,1.347,1.869,2.873,2.4,3.134,6.234,7.7,6.234,7.7a15.71,15.71,0,0,1-.267,2.544,57.713,57.713,0,0,1-11.194-6.689,17.379,17.379,0,0,1-4.272-4.356c5.324-22.521,12.155-24.866,12.155-24.866l2.229,13.571S2032.216,780.173,2031.843,780.661Z" transform="translate(-2024.213 -736.391)"/>
      <path id="Trazado_158" data-name="Trazado 158" class="cls-11" d="M2150.669,750.074l-1.373,4.176-1.83,2.688-2.627,1.425-2.473-1.425-4.157-6.639c.708-.133,1.563-.272,2.531-.389.011.3.251,4.847,4.026,6.725,0,0,4.534-1.816,4.09-6.652-.005-.057-.012-.111-.02-.166C2149.441,749.884,2150.054,749.968,2150.669,750.074Z" transform="translate(-2124.029 -729.348)"/>
      <path id="Trazado_159" data-name="Trazado 159" class="cls-3" d="M2070.024,971.94c0,.044,0,.087-.005.13-.011.285-.028.552-.049.794a4.409,4.409,0,0,1-.438.516,4.652,4.652,0,0,1-.771.624c-.134-.063-.267-.13-.4-.194a55.23,55.23,0,0,1-9.8-6.014,11.764,11.764,0,0,0,5.227-3.552C2066.188,967.378,2070.024,971.94,2070.024,971.94Z" transform="translate(-2054.29 -917.1)"/>
      <path id="Trazado_160" data-name="Trazado 160" class="cls-10" d="M2251.5,779.632a17.39,17.39,0,0,1-4.188,4.437,57.721,57.721,0,0,1-11.064,6.9,15.725,15.725,0,0,1-.316-2.538s3.748-4.634,6.086-7.814c1.136-1.548,1.939-2.75,1.814-2.909-.3-.373-4.3-5.634-6.081-7.98l-.848-1.117,2.259-13.343S2245.742,757.217,2251.5,779.632Z" transform="translate(-2209.593 -734.121)"/>
      <path id="Trazado_161" data-name="Trazado 161" class="cls-3" d="M2248.552,962.5a55.509,55.509,0,0,1-9.73,6.226l-.338.174a6.264,6.264,0,0,1-1.135-2.254c.075-.093.172-.216.291-.363,1.077-1.343,3.781-4.737,5.617-7.233A11.757,11.757,0,0,0,2248.552,962.5Z" transform="translate(-2210.838 -912.549)"/>
      <path id="Trazado_162" data-name="Trazado 162" class="cls-3" d="M2166.645,735.7a36.293,36.293,0,0,0-8.1.092.15.15,0,0,1,0-.016S2166.041,731.139,2166.645,735.7Z" transform="translate(-2141.838 -715.225)"/>
      <g id="Grupo_47" data-name="Grupo 47" transform="translate(16.806 26.356)">
        <g id="Grupo_46" data-name="Grupo 46" transform="translate(0.218)">
          <path id="Trazado_163" data-name="Trazado 163" class="cls-12" d="M2161.344,804.35h-.154l-.113-7.223h.389Z" transform="translate(-2161.076 -797.127)"/>
        </g>
        <path id="Trazado_164" data-name="Trazado 164" class="cls-11" d="M2159.641,853.143c-.14.211-.455.91-.246.983a.886.886,0,0,0,.674-.02C2160.168,854.008,2159.906,852.744,2159.641,853.143Z" transform="translate(-2159.326 -846.108)"/>
      </g>
      <g id="Grupo_49" data-name="Grupo 49" transform="translate(23.9 26.356)">
        <g id="Grupo_48" data-name="Grupo 48" transform="translate(0.218)">
          <path id="Trazado_165" data-name="Trazado 165" class="cls-12" d="M2218.373,804.35h-.154l-.114-7.223h.389Z" transform="translate(-2218.105 -797.127)"/>
        </g>
        <path id="Trazado_166" data-name="Trazado 166" class="cls-11" d="M2216.671,853.143c-.14.211-.455.91-.246.983a.886.886,0,0,0,.674-.02C2217.2,854.008,2216.935,852.744,2216.671,853.143Z" transform="translate(-2216.355 -846.108)"/>
      </g>
      <path id="Trazado_167" data-name="Trazado 167" class="cls-5" d="M2123.634,744.87l-6.37-6.139s-1.434-1.018.833-2.54S2123.634,744.87,2123.634,744.87Z" transform="translate(-2105.297 -717.279)"/>
      <path id="Trazado_168" data-name="Trazado 168" class="cls-5" d="M2212.624,744.87l6.37-6.139s1.434-1.018-.833-2.54S2212.624,744.87,2212.624,744.87Z" transform="translate(-2189.188 -717.279)"/>
      <g id="Grupo_50" data-name="Grupo 50" transform="translate(10.954 51.941)">
        <path id="Trazado_169" data-name="Trazado 169" class="cls-13" d="M2132.754,1008.351a3.935,3.935,0,0,1-3.075-.92,3.873,3.873,0,0,1-.372-.384,6.085,6.085,0,0,1-1.181-2.443,8.237,8.237,0,0,1-.253-1.609l-.005-.18h-10.289l.006.192a5.763,5.763,0,0,1-.533,2.837,4.038,4.038,0,0,1-.749,1.045,4.333,4.333,0,0,1-.907.694,6.239,6.239,0,0,1-2.929.767l-.19-.006v4.347h20.678v-4.358Z" transform="translate(-2112.277 -1002.816)"/>
      </g>
      <path id="Trazado_170" data-name="Trazado 170" class="cls-13" d="M2278.712,866.9s-5.736-7.526-1.2-9.717c1.8-.87,4.339,9.458,2.979,10.429s-3.6,2.2-3.6,2.2Z" transform="translate(-2244.478 -823.313)"/>
      <path id="Trazado_171" data-name="Trazado 171" class="cls-13" d="M2068.929,865.531s1.993-9.449.244-8.476-4.339,9.458-2.979,10.429,3.6,2.2,3.6,2.2Z" transform="translate(-2060.639 -823.183)"/>
      <g id="Grupo_51" data-name="Grupo 51" transform="translate(29.954 21.675)">
        <path id="Trazado_172" data-name="Trazado 172" class="cls-4" d="M2268.5,781.389c-2.619-3.251-3.6-8.531-3.464-13.979a63.719,63.719,0,0,1,.7-7.912l2.148,1.673a14.856,14.856,0,0,0-1.328,6.25,31.048,31.048,0,0,0,1.8,12.749Z" transform="translate(-2265.027 -759.498)"/>
      </g>
      <path id="Trazado_173" data-name="Trazado 173" class="cls-6" d="M2090.851,1424.9l-4.615,0c-.408.046-1.048-.552-1.048-1.407a17.025,17.025,0,0,0-.145-2.414c-.594-1.6.289-1.684,1.144-1.684h8.42c.855,0-.455,2.642-.455,3.5l.3,1.121C2094.456,1424.869,2091.706,1424.9,2090.851,1424.9Z" transform="translate(-2077.307 -1315.638)"/>
      <path id="Trazado_174" data-name="Trazado 174" class="cls-6" d="M2105.964,1481.015l-1.26,5.3h-3.938l-.235-5.075A8.225,8.225,0,0,0,2105.964,1481.015Z" transform="translate(-2091.038 -1369.592)"/>
      <path id="Trazado_175" data-name="Trazado 175" class="cls-3" d="M2229.029,1448.9l.949,3.935,1.26,5.218h3.938l.234-5,.182-3.856Z" transform="translate(-2203.553 -1341.469)"/>
      <path id="Trazado_176" data-name="Trazado 176" class="cls-6" d="M2219.291,1424.9l4.615,0c.408.046,1.048-.552,1.048-1.407a16.989,16.989,0,0,1,.145-2.414c.594-1.6-.289-1.684-1.144-1.684h-8.42c-.855,0,.455,2.642.455,3.5l-.3,1.121C2215.686,1424.869,2218.436,1424.9,2219.291,1424.9Z" transform="translate(-2191.483 -1315.638)"/>
      <path id="Trazado_177" data-name="Trazado 177" class="cls-6" d="M2236.663,1481.015l1.26,5.3h3.938l.234-5.075A8.224,8.224,0,0,1,2236.663,1481.015Z" transform="translate(-2210.237 -1369.592)"/>
    </g>
    <g id="Grupo_55" data-name="Grupo 55" transform="translate(151.527 221.165)">
      <path id="Trazado_178" data-name="Trazado 178" class="cls-8" d="M577.328,585.9a5.02,5.02,0,0,0-1.915-1.031c1.6-.721,2.966-1.571,2.023-2.09a1.678,1.678,0,0,0-1.408-.006c.789-.8,1.169-1.486.4-1.666-1.169-.273-2.387,1.233-3.236,2.622.551-1.191.835-2.372-.192-2.39-1.184-.02-1.416,1.552-1.4,2.91q-.147,0-.295.006c-.334-1.5-.981-3.372-2.085-2.873-.556.251-.536.791-.245,1.414-.522-.4-1.038-.539-1.448-.115-.625.647.144,1.414,1.159,2.055a6.262,6.262,0,0,0-2,1.164c-3.448,3.011.312,9.831.312,9.831l9.845-.252C579.932,590.565,578.445,587.112,577.328,585.9Z" transform="translate(-551.346 -581.072)"/>
      <path id="Trazado_179" data-name="Trazado 179" class="cls-9" d="M469.513,785.4l-5.88.741c-3.866.487-7.361-1.741-7.766-4.953l-2.237-17.745c-.405-3.211,1.287-5.743,5.175-5.9a39.379,39.379,0,0,0,10.283-1.978c3.666-1.22,4.077,2.155,4.482,5.367l2.237,17.745C476.211,781.883,473.379,784.91,469.513,785.4Z" transform="translate(-453.572 -733.633)"/>
      <path id="Trazado_180" data-name="Trazado 180" class="cls-6" d="M519.216,1534.541a10.286,10.286,0,0,1,.27-2.52c.27-.629,1.258-3.189,1.258-3.189h3.863a23.708,23.708,0,0,1,.763,3.1c.045.764,0,2.61,0,2.61Z" transform="translate(-511.051 -1410.943)"/>
      <path id="Trazado_181" data-name="Trazado 181" class="cls-6" d="M672.924,1534.541a10.286,10.286,0,0,0-.27-2.52c-.269-.629-1.258-3.189-1.258-3.189h-3.862a23.679,23.679,0,0,0-.764,3.1c-.045.764,0,2.61,0,2.61Z" transform="translate(-640.234 -1410.943)"/>
      <path id="Trazado_182" data-name="Trazado 182" class="cls-14" d="M557.2,706a36.163,36.163,0,0,1-.675,6.1l-4.265,2.975,16.056,2.4-3.829-5.291s-1.156-5.646-.55-7.734S557.2,706,557.2,706Z" transform="translate(-539.981 -688.536)"/>
      <path id="Trazado_183" data-name="Trazado 183" class="cls-15" d="M591.785,726.133s1.27,3.057,3.661,2.989,2.936-2.772,2.936-2.772Z" transform="translate(-574.593 -708.089)"/>
      <path id="Trazado_184" data-name="Trazado 184" class="cls-14" d="M584.366,659.351c-1.733-.031-4.923-2.338-4.923-5.2V649.7a1.779,1.779,0,0,1,1.617-1.9h6.612a1.779,1.779,0,0,1,1.617,1.9V653.9C589.288,656.9,586.353,659.386,584.366,659.351Z" transform="translate(-563.786 -639.499)"/>
      <path id="Trazado_185" data-name="Trazado 185" class="cls-11" d="M517.6,1048.25s.676,20.636-.335,32.411.007,28.161.007,28.161a7.642,7.642,0,0,0,6.735,0s3.842-22.748,3.818-28.161c-.026-5.765,4.182-31.511,4.182-31.511Z" transform="translate(-508.955 -990.139)"/>
      <path id="Trazado_186" data-name="Trazado 186" class="cls-11" d="M611.539,1108.575a7.638,7.638,0,0,1-6.734,0s-3.842-22.747-3.817-28.161c.011-2.435-.733-8.435-1.6-14.552-1.182-8.369-2.586-16.959-2.586-16.959l14.966-.935s-1.234,20.672-.224,32.446S611.539,1108.575,611.539,1108.575Z" transform="translate(-578.989 -989.892)"/>
      <path id="Trazado_187" data-name="Trazado 187" class="cls-16" d="M539.631,771.561v.009a42.489,42.489,0,0,0-5.458-1.007,7.6,7.6,0,0,1-3.923,2.978c-2.192-.3-4.039-3-4.039-3.065a22.186,22.186,0,0,0-4.984,1c-1.211.508-2.8,9.971-3.049,15.227-.031.66-.042,1.253-.027,1.754a89.67,89.67,0,0,1-.269,13.744c-.764,6.377.53,6.264.53,6.264s1.741.341,4.169.663a59.024,59.024,0,0,0,7.493.573,74.892,74.892,0,0,0,12.2-1.236c1.836.023-.515-11.428-.858-18.317-.079-1.6-.154-3.061-.223-4.4,2.206,1.9,8.7,5.363,8.844,5.805a31.234,31.234,0,0,0-1.847,3.963,28.925,28.925,0,0,1-4.494,8.79,5.771,5.771,0,0,1,.279,2.118,56.613,56.613,0,0,0,9.243-8.84,17.048,17.048,0,0,0,3.134-5.1C546.343,772.112,539.631,771.561,539.631,771.561Z" transform="translate(-509.671 -746.916)"/>
      <path id="Trazado_188" data-name="Trazado 188" class="cls-17" d="M522.58,923.322c-2.428-.322-4.169-.663-4.169-.663s-1.294.113-.53-6.264a89.67,89.67,0,0,0,.269-13.744c-.015-.5,0-1.094.027-1.754.372.6,4.516,7.289,5.632,12.264C524.622,916.79,523.4,921.064,522.58,923.322Z" transform="translate(-509.671 -861.115)"/>
      <path id="Trazado_189" data-name="Trazado 189" class="cls-18" d="M619.189,1155.9c.011-2.435-.733-8.435-1.6-14.552a28.8,28.8,0,0,1,3.079-7.171C623.433,1141.921,619.189,1155.9,619.189,1155.9Z" transform="translate(-597.19 -1065.374)"/>
      <path id="Trazado_190" data-name="Trazado 190" class="cls-14" d="M696.908,1032.81s-2.425-2.246-3.413-.988-1.168,3.234-.4,3.1,2.335-.853,2.56-.494,1.231,1.046,1.536.5S696.908,1032.81,696.908,1032.81Z" transform="translate(-662.883 -975.419)"/>
      <path id="Trazado_191" data-name="Trazado 191" class="cls-14" d="M727.111,980.585a5.761,5.761,0,0,1,.278,2.118,56.613,56.613,0,0,0,9.243-8.84c-1.395-.1-2.684-.415-5.027-2.067A26.657,26.657,0,0,1,727.111,980.585Z" transform="translate(-693.086 -923.194)"/>
      <path id="Trazado_192" data-name="Trazado 192" class="cls-17" d="M715.1,894.621c-.36-.3-6.124-3.474-8.307-5.369a2.3,2.3,0,0,1,3.526.748C711.67,892.381,715.1,894.621,715.1,894.621Z" transform="translate(-675.299 -850.44)"/>
      <path id="Trazado_193" data-name="Trazado 193" class="cls-17" d="M800.95,947.422a17.046,17.046,0,0,1-3.134,5.1C794.806,952.479,800.95,947.422,800.95,947.422Z" transform="translate(-754.269 -901.853)"/>
      <path id="Trazado_194" data-name="Trazado 194" class="cls-8" d="M579.374,637.75a4.676,4.676,0,0,1,5.144-3.1c3.941.573,4.282,1.415,4.7,2.392s1.227-3.571,1.227-3.571l-4.649-1.381s-5.625.64-6.03,1.583l-.4.943Z" transform="translate(-563.717 -625.745)"/>
      <g id="Grupo_53" data-name="Grupo 53" transform="translate(8.545 23.664)">
        <path id="Trazado_195" data-name="Trazado 195" class="cls-9" d="M522.269,798.778l.068-3.13c4.46-3.386,6.274-7.4,6.446-14.342a26.3,26.3,0,0,0-1.651-9.6s.789-.189,1.058-.236c.29-.05,1.177-.152,1.177-.152a37.243,37.243,0,0,1,1.1,9.981C530.295,788.7,527.1,795.11,522.269,798.778Z" transform="translate(-522.269 -771.319)"/>
      </g>
      <path id="Trazado_196" data-name="Trazado 196" class="cls-16" d="M477.38,802.341c-1.506.227-9.225,2.018-14.727,2.713-3.1.391-5.5.435-5.683-.346-.512-2.167,1.229-15.972,4-21.527a12.961,12.961,0,0,1,7.895-6.757l1.459,8.8L462.9,799.99l1.806.032,12.393.22Z" transform="translate(-456.47 -752.124)"/>
      <g id="Grupo_54" data-name="Grupo 54" transform="translate(21.393 44.728)">
        <rect id="Rectángulo_238" data-name="Rectángulo 238" class="cls-6" width="4.018" height="6.275" rx="2.009"/>
        <rect id="Rectángulo_239" data-name="Rectángulo 239" class="cls-9" width="4.018" height="6.275" rx="2.009" transform="translate(0 0.505)"/>
      </g>
      <path id="Trazado_197" data-name="Trazado 197" class="cls-14" d="M607.8,957.46s4.077-2.809,5.414-1.834,1.443,3.3-4.1,3.493Z" transform="translate(-588.617 -908.856)"/>
      <path id="Trazado_198" data-name="Trazado 198" class="cls-14" d="M518.01,968.467c-1.506.227-9.225,2.018-14.727,2.713a12.4,12.4,0,0,1,2.057-5.031l12.393.22Z" transform="translate(-497.1 -918.249)"/>
      <path id="Trazado_199" data-name="Trazado 199" class="cls-8" d="M592.191,677.988a1.2,1.2,0,0,0-.945-.4h-1.985a.876.876,0,0,0-.784.323.725.725,0,0,0-.112.329,1.851,1.851,0,0,0-.882.016.734.734,0,0,0-.113-.345.876.876,0,0,0-.784-.323H584.6a1.2,1.2,0,0,0-.945.4,1.016,1.016,0,0,0-.185.873c.226,1.122,1.518,1.265,2.163,1.265a3.559,3.559,0,0,0,.362-.017c.6,0,1.029-.346,1.338-1.084a1.948,1.948,0,0,0,.15-.609,1.709,1.709,0,0,1,.875-.018,1.922,1.922,0,0,0,.151.628c.309.738.734,1.083,1.338,1.084a3.546,3.546,0,0,0,.362.017c.645,0,1.937-.143,2.163-1.265A1.016,1.016,0,0,0,592.191,677.988Zm-4.975.987c-.287.685-.675,1-1.221,1h-.008a3.92,3.92,0,0,1-1.1-.051,1.434,1.434,0,0,1-1.285-1.093.89.89,0,0,1,.158-.765,1.072,1.072,0,0,1,.844-.353h1.985a.758.758,0,0,1,.675.264.619.619,0,0,1,.094.309,1.636,1.636,0,0,0-.174.065.078.078,0,0,0,.032.149.079.079,0,0,0,.032-.007s.041-.018.106-.041A1.9,1.9,0,0,1,587.216,678.976Zm5.032-.14a1.434,1.434,0,0,1-1.285,1.093,3.922,3.922,0,0,1-1.1.051h-.008c-.547,0-.935-.319-1.221-1a1.9,1.9,0,0,1-.137-.532,1.174,1.174,0,0,1,.113.052.078.078,0,0,0,.073-.138,1.381,1.381,0,0,0-.188-.08.609.609,0,0,1,.093-.3.758.758,0,0,1,.675-.264h1.985a1.072,1.072,0,0,1,.844.353A.89.89,0,0,1,592.249,678.836Z" transform="translate(-567.292 -665.582)"/>
      <path id="Trazado_200" data-name="Trazado 200" class="cls-19" d="M606.27,716.752a13.571,13.571,0,0,1,3.2,0,1.89,1.89,0,0,1-1.425.885A1.757,1.757,0,0,1,606.27,716.752Z" transform="translate(-587.276 -699.783)"/>
    </g>
    <g id="Grupo_59" data-name="Grupo 59" transform="translate(253.092 230.894)">
      <g id="Grupo_58" data-name="Grupo 58" transform="translate(0 0)">
        <path id="Trazado_201" data-name="Trazado 201" class="cls-20" d="M1287.645,659.677a5.46,5.46,0,0,0-3.008.03,1.383,1.383,0,0,1,.552-.413,4.582,4.582,0,0,0-1.518.741c-7.432-1.267-6.469,9.106-5.849,11.436s-2.97,9.084-5.448,12.38c-6.95,9.246,4.163,18.874,4.163,18.874,9.01,7.567,4.916-7.106,4.916-7.106-.558-1.871,6.21-13.705,10.192-17.644a13.541,13.541,0,0,0,.581-5.09,12.8,12.8,0,0,1-.068,4.513C1295.323,673.038,1290.463,660.6,1287.645,659.677Z" transform="translate(-1270.088 -659.294)"/>
        <path id="Trazado_202" data-name="Trazado 202" class="cls-4" d="M1447.793,814.444a8.367,8.367,0,0,1-1.224,3.608,44.438,44.438,0,0,1-4.925,6.828l-1.816-2.586s1.1-2.74,1.836-5a7.214,7.214,0,0,0,.6-2.853c-.4-.83-8.26-10.132-8.26-10.132l-2.137-7.2s5.231.277,7.458,3.538S1447.793,811.743,1447.793,814.444Z" transform="translate(-1411.74 -779.972)"/>
        <path id="Trazado_203" data-name="Trazado 203" class="cls-3" d="M1502.632,960.123a44.447,44.447,0,0,1-4.925,6.828l-1.816-2.586s1.1-2.74,1.836-5A7.849,7.849,0,0,0,1502.632,960.123Z" transform="translate(-1467.804 -922.043)"/>
        <path id="Trazado_204" data-name="Trazado 204" class="cls-3" d="M1375.354,1457.918l1.882,7.926,2.819-.016.1-7.91Z" transform="translate(-1362.26 -1358.579)"/>
        <path id="Trazado_205" data-name="Trazado 205" class="cls-3" d="M1565.964,1453.29l5.354,7.588,2.087-2.679-3.223-5.952Z" transform="translate(-1529.161 -1353.614)"/>
        <path id="Trazado_206" data-name="Trazado 206" class="cls-3" d="M1388.217,767.005a6.484,6.484,0,0,1-3.978.727,5.162,5.162,0,0,1-2.649-2.541c.684-.136.882-1.076.867-5.117l.309.061,5.2,1.03s-.118,1.637-.122,3.179C1387.843,765.639,1387.921,766.867,1388.217,767.005Z" transform="translate(-1367.72 -747.538)"/>
        <path id="Trazado_207" data-name="Trazado 207" class="cls-21" d="M1367.8,671.754a4.158,4.158,0,0,1,5.646-1.281A22.542,22.542,0,0,0,1367.8,671.754Z" transform="translate(-1355.642 -668.552)"/>
        <path id="Trazado_208" data-name="Trazado 208" class="cls-22" d="M1396.253,761.595s-.118,1.637-.122,3.179c-2.911-.082-4.449-2.737-5.08-4.209Z" transform="translate(-1376.005 -747.968)"/>
        <path id="Trazado_209" data-name="Trazado 209" class="cls-20" d="M1361.15,683.024a15.3,15.3,0,0,1-2.738-4.009c-.547-1.391-.89-6.885,4.638-7.2a7.446,7.446,0,0,1,3.258.534c1.325.553,3.352,1.914,2.41,6.959l-.171,1.675Z" transform="translate(-1347.175 -670.244)"/>
        <path id="Trazado_210" data-name="Trazado 210" class="cls-23" d="M1411.458,1063.732s-1.383.239-2.518.325c-.252.019-.492.031-.7.031a12.31,12.31,0,0,1-2.193-.36l-.049-.011c-.29-.069-.512-.125-.594-.146l-.035-.009a58.9,58.9,0,0,1-10.761-19.979q-.135-.43-.286-.868c-2.117-6.172-6.5-13.917-8.816-20.928q-.552-1.674-.995-3.162-.143-.478-.276-.939a74.324,74.324,0,0,1-2.651-13.961l13.9,3.537S1401.321,1032.561,1411.458,1063.732Z" transform="translate(-1367.715 -960.88)"/>
        <path id="Trazado_211" data-name="Trazado 211" class="cls-3" d="M1380.208,697.342s-6.729,1.472-7.581-2.732-2.295-6.846,1.965-7.964,5.423.317,6.048,1.651S1381.937,696.85,1380.208,697.342Z" transform="translate(-1359.05 -682.892)"/>
        <path id="Trazado_212" data-name="Trazado 212" class="cls-20" d="M1365.973,679.624s-.854,5.306-3.544,6.607-4.074.789-4.074.789a8.194,8.194,0,0,0,1.671-5.276S1364.106,677.557,1365.973,679.624Z" transform="translate(-1347.376 -676.593)"/>
        <path id="Trazado_213" data-name="Trazado 213" class="cls-20" d="M1416.56,680.107a6.083,6.083,0,0,1,2.155,1.826c.552,1,1.148,3.177,1.776,2.973,0,0,.717-3.634-1.231-5.216C1417.195,678.013,1416.56,680.107,1416.56,680.107Z" transform="translate(-1398.341 -676.583)"/>
        <path id="Trazado_214" data-name="Trazado 214" class="cls-3" d="M1386.886,1518.074a7.642,7.642,0,0,1-.359,3.25s-.461,2.1,1.609,2.141,2.578-.156,2.344-1.445-.68-3.518-.68-3.518Z" transform="translate(-1372.005 -1411.253)"/>
        <path id="Trazado_215" data-name="Trazado 215" class="cls-24" d="M1384.783,1543.819a11.049,11.049,0,0,0-.225,3.263,7.4,7.4,0,0,0,2.2.245,8.851,8.851,0,0,0,2.264-.245,13.8,13.8,0,0,0-.433-3.317S1387.127,1545.967,1384.783,1543.819Z" transform="translate(-1370.262 -1433.748)"/>
        <path id="Trazado_216" data-name="Trazado 216" class="cls-3" d="M1610.8,1506.486a51.788,51.788,0,0,1-4.989-6.392l-2.838,1.454,6.344,5.958,1.484-.2Z" transform="translate(-1561.563 -1395.509)"/>
        <path id="Trazado_217" data-name="Trazado 217" class="cls-24" d="M1608.156,1519.2s-4.1,0-4.8-.078-1.269-1.094-2.031-2.617a2.565,2.565,0,0,0-1.729-1.155l.014,3.724h-1.128l-.995-3.946c-.676-1.242-.054-2.368.422-3.349.553,0,2.041.377,4.861,3.554a3.7,3.7,0,0,0,2.966,1.384.257.257,0,0,0,.042.022C1608.117,1517.8,1608.156,1519.2,1608.156,1519.2Z" transform="translate(-1556.499 -1405.744)"/>
        <path id="Trazado_218" data-name="Trazado 218" class="cls-25" d="M1427.6,1149.193c-.252.019-.492.03-.7.03a12.32,12.32,0,0,1-2.193-.36l-.049-.011-.594-.146-.035-.009a58.9,58.9,0,0,1-10.761-19.979q-.135-.43-.286-.868c-2.117-6.172-6.5-13.917-8.816-20.928-.368-1.116-.7-2.168-.995-3.162q-.143-.478-.276-.939l2.458-1.866s7.382,11.953,9.667,23.2C1416.919,1133.477,1425.074,1145.565,1427.6,1149.193Z" transform="translate(-1386.38 -1046.016)"/>
        <path id="Trazado_219" data-name="Trazado 219" class="cls-23" d="M1334.723,1102.871c.042,5.469-.235,18.045-.947,23.253a3.706,3.706,0,0,1-2.351.6,4.039,4.039,0,0,1-2.483-.626c-1.787-9.052-3.059-16.542-3.984-23-.76-5.3-1.434-9.838-1.953-13.747-.46-3.464-.8-6.432-.96-8.992-.021-.348-.041-.687-.056-1.019-.02-.439-.036-.865-.044-1.278s-.01-.821-.007-1.214l.06-.005,3.453-.336,10.912-1.064C1336.181,1085.033,1334.7,1099.692,1334.723,1102.871Z" transform="translate(-1315.488 -1023.685)"/>
        <path id="Trazado_220" data-name="Trazado 220" class="cls-25" d="M1331.42,1118.382a4.265,4.265,0,0,1-2.483-.626c-1.787-9.052-3.059-16.542-3.984-23-.76-5.3-1.434-9.838-1.953-13.747-.46-3.464-.8-6.433-.96-8.992-.019-1.261-.032-2.469-.047-3.517s-.033-1.961-.062-2.586l3.515,2.25,3.7,2.366s-5.247,4.773-3.958,13.8S1329.626,1117.1,1331.42,1118.382Z" transform="translate(-1315.482 -1015.339)"/>
        <path id="Trazado_221" data-name="Trazado 221" class="cls-4" d="M1340.5,834.186c-4.186,1.088-23.72,3.235-23.888-1.657-.042-1.193,0-2.635.094-4.195.292-4.833,1.084-10.8,1.465-14.091.174-1.506-.4-8.253.039-11.929a8.374,8.374,0,0,1,.27-1.405c.844-2.774,4.635-3.526,6.581-3.593l5.872-.2s6.064,6.774,6.908,8.856,1.119,9.205,1.775,12.655S1342.533,833.658,1340.5,834.186Z" transform="translate(-1310.808 -779.973)"/>
        <path id="Trazado_222" data-name="Trazado 222" class="cls-23" d="M1329.738,854.245s-3.265,10.026-12.257,10.682c.292-4.833,1.084-10.8,1.465-14.091.174-1.506-.405-8.253.039-11.929.117.025.223.09.345.114C1329.233,840.933,1330.638,852.154,1329.738,854.245Z" transform="translate(-1311.586 -816.565)"/>
        <g id="Grupo_56" data-name="Grupo 56" transform="translate(13.45 26.397)">
          <rect id="Rectángulo_240" data-name="Rectángulo 240" class="cls-9" width="10.488" height="15.963" transform="translate(2.241 0.053) rotate(6.08)"/>
          <path id="Trazado_223" data-name="Trazado 223" class="cls-20" d="M1380.46,871.562l-.669-.053-1.572,15.86.55.066Z" transform="translate(-1378.219 -871.509)"/>
        </g>
        <g id="Grupo_57" data-name="Grupo 57" transform="translate(5.652 17.344)">
          <path id="Trazado_224" data-name="Trazado 224" class="cls-3" d="M1319.7,928.431a110.843,110.843,0,0,0,14.391,3.254s2.321,1,1.231,1.278c-.279.07-14.362,3.141-16.45,1.149Z" transform="translate(-1318.455 -912.297)"/>
          <path id="Trazado_225" data-name="Trazado 225" class="cls-4" d="M1324.125,798.727s-3.869.021-5.521,1.906c-3.016,3.44-3.613,18.072-2.661,19.909.409.79,3.549.854,4.873-2.972C1321.5,815.585,1324.5,802.335,1324.125,798.727Z" transform="translate(-1315.526 -798.727)"/>
        </g>
        <path id="Trazado_226" data-name="Trazado 226" class="cls-3" d="M1434.3,941.771s.865-.081,1.029-.357c.328-.552.847-.545,1.279-.618s.918-.546,1-.451-.319.617-.545.812a1.886,1.886,0,0,0,.771-.118c.307-.146,1.243-1.356,1.39-.847.388,1.339-.015,2.625-1.089,2.729-1.158.113-4.033.667-4.033.667Z" transform="translate(-1413.703 -905.142)"/>
      </g>
    </g>
    <g id="Grupo_69" data-name="Grupo 69" transform="translate(295.432 230.491)">
      <g id="Grupo_61" data-name="Grupo 61" transform="translate(0 18.498)">
        <path id="Trazado_227" data-name="Trazado 227" class="cls-26" d="M1645.084,829.516c-5.5-1.4-11.539-9.926-11.539-9.926l1.548-1.342c1.6,1.889,8.265,5.143,8.265,5.143-.036-1.729.01-3.306.119-4.741.739-9.754,4.417-13,5.42-13.717a2.388,2.388,0,0,1,.255-.164s0,.071.009.205c.015.29.041.874.068,1.675C1649.433,812.619,1649.676,830.686,1645.084,829.516Z" transform="translate(-1630.676 -804.769)"/>
        <path id="Trazado_228" data-name="Trazado 228" class="cls-26" d="M1614.9,873.289c-.023-.23-.178-3.582-.844-4.219a5.52,5.52,0,0,0-2.358-1.437,3.767,3.767,0,0,0-1.055,3.674,12.514,12.514,0,0,0,2.709,3.325Z" transform="translate(-1610.482 -859.81)"/>
        <g id="Grupo_60" data-name="Grupo 60" transform="translate(0.881 6.531)">
          <path id="Trazado_229" data-name="Trazado 229" class="cls-27" d="M1627.857,864.612l-3.62.151a.218.218,0,0,1-.227-.208l-.289-6.9a.217.217,0,0,1,.208-.226l3.62-.152a.217.217,0,0,1,.227.208l.289,6.9A.218.218,0,0,1,1627.857,864.612Z" transform="translate(-1622.956 -857.274)"/>
          <path id="Trazado_230" data-name="Trazado 230" class="cls-28" d="M1621.527,864.928l-3.283.137a.386.386,0,0,1-.4-.37l-.275-6.566a.386.386,0,0,1,.37-.4l3.283-.137a.386.386,0,0,1,.4.37l.275,6.566A.386.386,0,0,1,1621.527,864.928Z" transform="translate(-1617.566 -857.551)"/>
        </g>
        <path id="Trazado_231" data-name="Trazado 231" class="cls-26" d="M1617.488,865.661s.987-1.1,1.974-.26-.065,2.64-.922,3.131a6.937,6.937,0,0,0-1.13.748Z" transform="translate(-1616.547 -857.581)"/>
      </g>
      <path id="Trazado_232" data-name="Trazado 232" class="cls-29" d="M1726.4,1111.811c-.335,1.331-.7,2.6-1.078,3.779-.081.253-.16.5-.24.745-.04.121-.081.24-.12.359q-.119.35-.235.686c-.1.292-.2.577-.3.852-.074.2-.147.4-.22.6-1.115,2.99-2.049,4.884-2.049,4.884l-2.221-.153a60.4,60.4,0,0,0,1-9.648c.006-.2.011-.407.015-.614.008-.441.014-.889.014-1.348,0-.188,0-.378,0-.57a51.032,51.032,0,0,0-2.584-16.2,105.578,105.578,0,0,1-3.536-12.484c-2.66-12.252-2.035-20.3-2.035-20.3l12.494,1.462.582.068c.053,5.738.2,13.529.329,19.62.022,1.057.043,2.064.064,3,.086,3.911.151,6.584.151,6.584C1728.829,1098.307,1727.957,1105.609,1726.4,1111.811Z" transform="translate(-1700.022 -1011.856)"/>
      <path id="Trazado_233" data-name="Trazado 233" class="cls-6" d="M1743.335,663.9a3.626,3.626,0,0,1,.245,5.414s2.258.222,3.023-.4a2.1,2.1,0,0,1-.29.442s2.525.091,3.567-.7.373-13.705-6.635-12.261c0,0-5.94-.449-5.386,6.424s-1.689,6.873-1.689,6.873a3.192,3.192,0,0,0,.925.307s.44-.168.527-.411a1.563,1.563,0,0,1-.2.5s2.421.229,3.63-.684S1743.68,665.321,1743.335,663.9Z" transform="translate(-1720.536 -656.255)"/>
      <path id="Trazado_234" data-name="Trazado 234" class="cls-26" d="M1734.542,782.233c-2.361-5.3-3.491-6.793-3.53-8.459-.031-1.318.618-2.739,1.881-6.225a12.993,12.993,0,0,0,.628-2.52c1-6.72-2.888-13.985-5.3-14.479-.672-.178-1.811-2.6-1.8-6.516l-.3.06-5.086,1.007s.116,1.6.119,3.108c0,1.256-.064,2.535-.349,2.685-.366.033-.7.1-.7.1s-4.3,3.023-4.582,7.122c-.371,5.476,3.49,11.968.065,22.914C1712.09,792.208,1735.846,785.159,1734.542,782.233Z" transform="translate(-1702.204 -733.09)"/>
      <path id="Trazado_235" data-name="Trazado 235" class="cls-29" d="M1761.839,745.52s.116,1.6.119,3.108c2.846-.08,4.35-2.677,4.967-4.115Z" transform="translate(-1743.012 -733.51)"/>
      <path id="Trazado_236" data-name="Trazado 236" class="cls-6" d="M1744.9,666.5a14.953,14.953,0,0,0,1.849-4.371c.256-1.439-.477-6.771-5.836-6a7.281,7.281,0,0,0-3.019,1.142c-1.163.786-2.843,2.482-.965,7.135l.488,1.572Z" transform="translate(-1720.466 -656.052)"/>
      <path id="Trazado_237" data-name="Trazado 237" class="cls-26" d="M1738.412,684.107s6.733.111,6.738-4.083.877-7-3.422-7.253-5.136,1.351-5.478,2.751S1736.661,683.969,1738.412,684.107Z" transform="translate(-1720.536 -670.668)"/>
      <path id="Trazado_238" data-name="Trazado 238" class="cls-6" d="M1756.2,666.125s1.844,4.921,4.673,5.648,4.057-.03,4.057-.03a8.013,8.013,0,0,1-2.621-4.733S1757.593,663.783,1756.2,666.125Z" transform="translate(-1738.076 -664.125)"/>
      <path id="Trazado_239" data-name="Trazado 239" class="cls-6" d="M1735.877,669.689a5.946,5.946,0,0,0-1.713,2.167c-.336,1.068-.487,3.267-1.127,3.192,0,0-1.389-3.345.172-5.237C1734.864,667.8,1735.877,669.689,1735.877,669.689Z" transform="translate(-1717.294 -667.29)"/>
      <path id="Trazado_240" data-name="Trazado 240" class="cls-26" d="M1832.3,832.838l-2.021.606S1823.607,822.38,1823,819.5c-.2-.937-.682-2.813-1.248-4.914-1.171-4.352-2.682-9.677-2.682-9.677l-.5-2.156-1.7-7.351a23.021,23.021,0,0,1,5.151,1.127,2.363,2.363,0,0,1,1.277.944c1.4,3.071,2.791,10.821,3.771,16.349.546,3.081.963,5.473,1.18,5.98C1828.861,821.218,1830.714,829,1832.3,832.838Z" transform="translate(-1791.202 -778.07)"/>
      <path id="Trazado_241" data-name="Trazado 241" class="cls-6" d="M1757.819,667.243s1.314,5.153,4.884,6.8c0,0-3.57-3.166-3.873-6.567S1757.819,667.243,1757.819,667.243Z" transform="translate(-1739.492 -664.678)"/>
      <path id="Trazado_242" data-name="Trazado 242" class="cls-26" d="M1776.444,1092.216a30.749,30.749,0,0,1-3.881,12.625l-1.08.983s-.984-5.613-1.694-12.039c-.677-6.108-1.6-12.572-2.654-14.545-1.569-2.948-2.725-8.976-3.558-15.346-1.376-10.54-1.863-22.015-1.863-22.015l12.667-.628c1.274,2.142,1.829,5.655,1.961,9.649a97.284,97.284,0,0,1-.65,13.161c-.641,5.92-1.533,10.855-1.74,11.964a.01.01,0,0,1,0,.005.66.66,0,0,0,.084.424C1776.554,1081.443,1776.918,1087.151,1776.444,1092.216Z" transform="translate(-1742.902 -993.336)"/>
      <path id="Trazado_243" data-name="Trazado 243" class="cls-11" d="M1696,812.3c-.285,6.958-1.326,13.849-4.356,13.405-3.713-.542-4.681-4.008-4.878-6.585a14.8,14.8,0,0,1,.054-2.863,6.573,6.573,0,0,0,2.124-.281c1.4-1.3.987-14.013,1.682-15.333s5.2-2.168,5.2-2.168S1696.28,805.424,1696,812.3Z" transform="translate(-1677.237 -780.762)"/>
      <path id="Trazado_244" data-name="Trazado 244" class="cls-18" d="M1696.3,875.989c-.285,6.958-1.326,13.849-4.355,13.405-3.713-.542-4.681-4.008-4.878-6.585.912-.046,2.517-.268,3.155-1.241.913-1.393,3.762-10.356,3.762-10.356S1695.1,873.224,1696.3,875.989Z" transform="translate(-1677.541 -844.449)"/>
      <path id="Trazado_245" data-name="Trazado 245" class="cls-6" d="M1741.17,1252.683c-.335,1.331-.7,2.6-1.079,3.779-.08.253-.16.5-.24.745-.04.121-.081.24-.12.359-.079.233-.157.463-.235.686-.1.292-.2.577-.3.852-.074.2-.147.4-.22.6-1.115,2.989-2.048,4.884-2.048,4.884l-2.221-.153a60.4,60.4,0,0,0,1-9.648c.006-.2.011-.407.015-.614.008-.441.014-.889.014-1.348,0-.187,0-.378,0-.57a51.028,51.028,0,0,0-2.583-16.2,105.585,105.585,0,0,1-3.536-12.484c1.32.272,2.483-.006,5.856-.289.354-.03,2.05,2.069,3.725,4.848a8.992,8.992,0,0,0,2.005,5.874C1743.6,1239.179,1742.729,1246.481,1741.17,1252.683Z" transform="translate(-1714.795 -1152.728)"/>
      <path id="Trazado_246" data-name="Trazado 246" class="cls-9" d="M1789.562,1251.61a30.748,30.748,0,0,1-3.882,12.625l-1.08.983s-.984-5.613-1.694-12.039c-.677-6.108-1.6-12.572-2.654-14.545-1.569-2.948-2.726-8.976-3.558-15.346,1.166.485,5.134,1.745,12.115.167-.641,5.92-1.533,10.855-1.74,11.964a.01.01,0,0,1,0,.005.66.66,0,0,0,.083.424C1789.671,1240.837,1790.036,1246.544,1789.562,1251.61Z" transform="translate(-1756.019 -1152.73)"/>
      <path id="Trazado_247" data-name="Trazado 247" class="cls-9" d="M1728.834,1004.016a45.713,45.713,0,0,1-6.555,1.359c-4.834.668-11.592.909-17.627-1.359,0,0-.5-8.981.933-13.662s2.1-6.922,2.1-6.922a30.262,30.262,0,0,0,11.548.323,18.868,18.868,0,0,0,2.441-.631s3.589,7.621,4.576,10.886S1728.834,1004.016,1728.834,1004.016Z" transform="translate(-1692.866 -942.44)"/>
      <path id="Trazado_248" data-name="Trazado 248" class="cls-6" d="M1821.7,1004.016a45.718,45.718,0,0,1-6.555,1.359c-7.159-4.06-3.668-21.143-3.668-21.143.212-.172.42-.332.621-.478a18.856,18.856,0,0,0,2.44-.631s3.589,7.621,4.576,10.886S1821.7,1004.016,1821.7,1004.016Z" transform="translate(-1785.727 -942.44)"/>
      <path id="Trazado_249" data-name="Trazado 249" class="cls-11" d="M1744.008,802.25c0,1.748-1.783,2.823-3.7,3.345-1.84.5-3.8.5-4.412.086-1.058-.709-2.781-8.589-3.284-10.987-.09-.435-.142-.689-.142-.689s-1.374,3.28-1.417,3.586c-.02.138-.036.327-.049.493-.014.2-.022.368-.022.368s-7.459,3.765-13.988.307c0,0-2.654-15.34-1.5-17.981.573-1.312,3.559-4.019,4.754-5.187a1.418,1.418,0,0,0,.138-1.258.549.549,0,0,1,.673-.652,7.081,7.081,0,0,0,3.633-.321,8.759,8.759,0,0,0,2.221-1.085.339.339,0,0,1,.527.24c.113.915.389,2.585.894,2.585.695,0,5.437.578,5.784,1.165.121.2,1.354,2.993,2.91,6.689a.051.051,0,0,1,0,.01C1739.952,789.9,1744.008,800.014,1744.008,802.25Z" transform="translate(-1702.179 -757.767)"/>
      <path id="Trazado_250" data-name="Trazado 250" class="cls-18" d="M1805.028,881.214s-1.374,3.28-1.417,3.586c-.02.138-.036.327-.049.493a6.775,6.775,0,0,1-2.286,1.2c-2.325.7-3.335-3.752-3.2-5.976s3.427-8.57,4.522-8.7S1805.028,881.214,1805.028,881.214Z" transform="translate(-1774.734 -844.977)"/>
      <path id="Trazado_251" data-name="Trazado 251" class="cls-18" d="M1854.174,948.065c-.09-.435-.142-.689-.142-.689A3.526,3.526,0,0,1,1854.174,948.065Z" transform="translate(-1823.737 -911.139)"/>
      <g id="Grupo_62" data-name="Grupo 62" transform="translate(14.505 39.123)">
        <path id="Trazado_252" data-name="Trazado 252" class="cls-30" d="M1733.489,974.139c-4.244,0-5.994-1.461-6.123-1.56l-.275-2c.041.03,5.736,3.45,14.549.175l-.187,1.514A23.132,23.132,0,0,1,1733.489,974.139Z" transform="translate(-1727.091 -970.58)"/>
      </g>
      <path id="Trazado_253" data-name="Trazado 253" class="cls-18" d="M1897.646,877.906c0,1.748-1.783,2.823-3.7,3.345,2.638-3.141-3.134-22.146-3.281-22.631C1893.589,865.552,1897.646,875.67,1897.646,877.906Z" transform="translate(-1855.816 -833.423)"/>
      <path id="Trazado_254" data-name="Trazado 254" class="cls-18" d="M1775.252,775.1s-3.551,2.249-6.237,1.716c0,0-.645-.407.245-.817.835-.384,2.778-1.519,2.352-2.639a8.759,8.759,0,0,0,2.221-1.085.34.34,0,0,1,.527.24C1774.471,773.431,1774.748,775.1,1775.252,775.1Z" transform="translate(-1749.098 -757.767)"/>
      <g id="Grupo_63" data-name="Grupo 63" transform="translate(13.433 108.584)">
        <path id="Trazado_255" data-name="Trazado 255" class="cls-6" d="M1728.449,1534.14h-1.418c-.475-.075-.825-.212-1.312-.276a1.313,1.313,0,0,0-1.148.276l-.013.014h-6.022c-.152-.216-.006-.718.136-1.086a.857.857,0,0,1,.564-.515,6.5,6.5,0,0,0,3.051-1.393c.649-.586,3.132-2.155,3.132-2.155l.013,0c.055,0,.314.081,1.444,1.034.584.492,1.579-.7,1.579-.7a1.421,1.421,0,0,1,.326.443,1.5,1.5,0,0,1,.129.925,5.994,5.994,0,0,0,.431,2.233c.141.413.259.706.259.706S1729.668,1533.987,1728.449,1534.14Z" transform="translate(-1718.471 -1529.001)"/>
        <path id="Trazado_256" data-name="Trazado 256" class="cls-31" d="M1777.684,1529.783a4.493,4.493,0,0,1-1.527.77c-.64.084-1.836-1.549-1.836-1.549l.013,0c.055,0,.314.081,1.444,1.034.584.492,1.579-.7,1.579-.7A1.423,1.423,0,0,1,1777.684,1529.783Z" transform="translate(-1767.374 -1529.001)"/>
        <path id="Trazado_257" data-name="Trazado 257" class="cls-31" d="M1728.449,1561.871h-1.418c-.475-.075-.825-.212-1.312-.276a1.313,1.313,0,0,0-1.148.276l-.013.014h-6.022c-.152-.216-.006-.717.136-1.086.183-.163.234.706.335.845a26.852,26.852,0,0,0,5.19-.152,2.906,2.906,0,0,1,2.273-.278,5.475,5.475,0,0,0,2.87-.542c.141.413.259.706.259.706S1729.668,1561.719,1728.449,1561.871Z" transform="translate(-1718.471 -1556.733)"/>
      </g>
      <g id="Grupo_64" data-name="Grupo 64" transform="translate(20.997 108.584)">
        <path id="Trazado_258" data-name="Trazado 258" class="cls-6" d="M1789.264,1534.14h-1.417c-.475-.075-.825-.212-1.312-.276a1.314,1.314,0,0,0-1.148.276l-.013.014h-6.022c-.152-.216-.006-.718.136-1.086a.857.857,0,0,1,.564-.515,6.5,6.5,0,0,0,3.05-1.393c.649-.586,3.132-2.155,3.132-2.155l.013,0c.055,0,.314.081,1.444,1.034.584.492,1.579-.7,1.579-.7a1.423,1.423,0,0,1,.326.443,1.5,1.5,0,0,1,.129.925,6,6,0,0,0,.432,2.233c.14.413.259.706.259.706S1790.484,1533.987,1789.264,1534.14Z" transform="translate(-1779.287 -1529.001)"/>
        <path id="Trazado_259" data-name="Trazado 259" class="cls-31" d="M1838.5,1529.783a4.5,4.5,0,0,1-1.527.77c-.64.084-1.836-1.549-1.836-1.549l.013,0c.055,0,.314.081,1.444,1.034.584.492,1.579-.7,1.579-.7A1.421,1.421,0,0,1,1838.5,1529.783Z" transform="translate(-1828.19 -1529.001)"/>
        <path id="Trazado_260" data-name="Trazado 260" class="cls-31" d="M1789.264,1561.871h-1.417c-.475-.075-.825-.212-1.312-.276a1.315,1.315,0,0,0-1.148.276l-.013.014h-6.022c-.152-.216-.006-.717.136-1.086.183-.163.234.706.335.845a26.85,26.85,0,0,0,5.19-.152,2.907,2.907,0,0,1,2.273-.278,5.476,5.476,0,0,0,2.87-.542c.14.413.259.706.259.706S1790.484,1561.719,1789.264,1561.871Z" transform="translate(-1779.287 -1556.733)"/>
      </g>
      <g id="Grupo_68" data-name="Grupo 68" transform="translate(35.509 59.238)">
        <path id="Trazado_261" data-name="Trazado 261" class="cls-32" d="M1906.544,1151.508a2.054,2.054,0,0,0-1.308-1.526,7.982,7.982,0,0,0-5.075-.124c-3.708,1.09-4.071,3.369-3.826,5.009s-.482,4.252-.375,6.111.639,6.529,3.385,6.284,11.6-2.624,11.6-2.624,1.529-2.91-1.612-7.125A15.167,15.167,0,0,1,1906.544,1151.508Z" transform="translate(-1895.95 -1147.364)"/>
        <g id="Grupo_67" data-name="Grupo 67" transform="translate(1.82)">
          <g id="Grupo_65" data-name="Grupo 65" transform="translate(3.097)">
            <path id="Trazado_262" data-name="Trazado 262" class="cls-32" d="M1939.456,1134.283l-.734.066a1.653,1.653,0,0,0-.421-.827,1.2,1.2,0,0,0-1.064-.261,1.11,1.11,0,0,0-.881.574,1.769,1.769,0,0,0-.1,1.012l-.716.166a2.926,2.926,0,0,1,.159-1.732,1.757,1.757,0,0,1,1.357-.962,1.846,1.846,0,0,1,1.654.478A2.839,2.839,0,0,1,1939.456,1134.283Z" transform="translate(-1935.478 -1132.288)"/>
          </g>
          <g id="Grupo_66" data-name="Grupo 66" transform="translate(0 1.731)">
            <path id="Trazado_263" data-name="Trazado 263" class="cls-27" d="M1925.571,1161.332s-8.851,2.384-11.6,2.625-3.28-4.42-3.381-6.286.616-4.468.375-6.111a4.545,4.545,0,0,1-.056-1c.071-1.462.89-3.124,3.876-4a7.975,7.975,0,0,1,5.08.126,2.059,2.059,0,0,1,1.309,1.522c.032.143.062.318.1.489a15.331,15.331,0,0,0,2.685,5.519C1927.1,1158.424,1925.571,1161.332,1925.571,1161.332Z" transform="translate(-1910.58 -1146.205)"/>
            <path id="Trazado_264" data-name="Trazado 264" class="cls-33" d="M1921.416,1233.044l5.335-1.207s1.241,3.821-1.28,4.516S1921.9,1235.571,1921.416,1233.044Z" transform="translate(-1920.068 -1221.186)"/>
            <path id="Trazado_265" data-name="Trazado 265" class="cls-32" d="M1921.416,1233.044a3.294,3.294,0,0,0,2.894.768,4.105,4.105,0,0,0,2.441-1.975Z" transform="translate(-1920.068 -1221.186)"/>
            <path id="Trazado_266" data-name="Trazado 266" class="cls-33" d="M1973.01,1221.371l5.335-1.207s1.241,3.82-1.28,4.516S1973.5,1223.9,1973.01,1221.371Z" transform="translate(-1965.245 -1210.964)"/>
            <path id="Trazado_267" data-name="Trazado 267" class="cls-32" d="M1973.01,1221.371a3.293,3.293,0,0,0,2.894.768,4.1,4.1,0,0,0,2.441-1.975Z" transform="translate(-1965.245 -1210.964)"/>
            <path id="Trazado_268" data-name="Trazado 268" class="cls-33" d="M1923.5,1148.206c.032.143.062.318.1.489a6.361,6.361,0,0,1-4.3,3.746,6.5,6.5,0,0,1-6.061-1.883c.071-1.462.89-3.124,3.876-4a7.975,7.975,0,0,1,5.08.126A2.059,2.059,0,0,1,1923.5,1148.206Z" transform="translate(-1912.904 -1146.205)"/>
            <path id="Trazado_269" data-name="Trazado 269" class="cls-28" d="M1957.9,1193.777h0a.45.45,0,0,1-.537-.339l-.09-.4a.45.45,0,0,1,.339-.537h0a.45.45,0,0,1,.537.339l.09.4A.45.45,0,0,1,1957.9,1193.777Z" transform="translate(-1951.458 -1186.735)"/>
          </g>
        </g>
      </g>
      <path id="Trazado_270" data-name="Trazado 270" class="cls-26" d="M1926.485,1093.643a5.269,5.269,0,0,0,1.254,1.852,3.581,3.581,0,0,1,1.381,2.155,1.9,1.9,0,0,1-1.664,2.324c-.808,0-1.581-1.1-2.056-3.734-.026-.145-.793-1.654-.793-1.654Z" transform="translate(-1885.534 -1039.212)"/>
    </g>
    <g id="Grupo_79" data-name="Grupo 79" transform="translate(202.489 226.066)">
      <path id="Trazado_271" data-name="Trazado 271" class="cls-6" d="M992.548,651.859c-.966-1.466-4.8-.646-8.564,1.833s-6.033,5.678-5.067,7.144,4.8.646,8.565-1.833S993.514,653.325,992.548,651.859Z" transform="translate(-964.336 -647.318)"/>
      <g id="Grupo_70" data-name="Grupo 70" transform="translate(8.545 22.939)">
        <path id="Trazado_272" data-name="Trazado 272" class="cls-4" d="M931.967,840.986l.743.045c-.006-.016.289-12.979,1.426-18.223a51.635,51.635,0,0,1,7.716-17.485l-1.33-.426a43.227,43.227,0,0,0-2.6,4.7,48.282,48.282,0,0,0-4.546,12.737C932.412,827.629,931.94,840.917,931.967,840.986Z" transform="translate(-931.966 -804.896)"/>
      </g>
      <path id="Trazado_273" data-name="Trazado 273" class="cls-23" d="M942.309,655.19s-4.858-1.036-7.189,2.914-2.461,10.816-4.016,13.062-4.3,11.722-1.382,13.843,20.869-.078,21.877-1.045-.06-10.919-1.815-13.8S952.3,653.722,942.309,655.19Z" transform="translate(-920.331 -650.765)"/>
      <path id="Trazado_274" data-name="Trazado 274" class="cls-3" d="M1068.325,829.516c5.5-1.4,11.538-9.926,11.538-9.926l-1.548-1.342c-1.6,1.889-8.264,5.143-8.264,5.143.036-1.729-.01-3.306-.119-4.741-.739-9.754-4.416-13-5.42-13.717a2.388,2.388,0,0,0-.255-.164s0,.071-.009.205c-.015.29-.041.874-.069,1.675C1063.976,812.619,1063.732,830.686,1068.325,829.516Z" transform="translate(-1039.111 -781.846)"/>
      <path id="Trazado_275" data-name="Trazado 275" class="cls-3" d="M1178.449,873.289c.023-.23.178-3.582.844-4.219a5.521,5.521,0,0,1,2.358-1.437,3.766,3.766,0,0,1,1.055,3.674,12.51,12.51,0,0,1-2.709,3.325Z" transform="translate(-1139.245 -836.886)"/>
      <path id="Trazado_276" data-name="Trazado 276" class="cls-3" d="M991.216,1111.811c.335,1.331.7,2.6,1.079,3.779.081.253.16.5.24.745.04.121.081.24.12.359q.119.35.235.686c.1.292.2.577.3.852q.11.307.22.6c1.115,2.99,2.049,4.884,2.049,4.884l2.221-.153a60.407,60.407,0,0,1-1-9.648c-.006-.2-.011-.407-.015-.614-.008-.441-.014-.889-.014-1.348,0-.188,0-.378,0-.57a51.018,51.018,0,0,1,2.584-16.2,105.623,105.623,0,0,0,3.536-12.484c2.66-12.252,2.035-20.3,2.035-20.3l-12.494,1.462-.582.068c-.053,5.738-.2,13.529-.33,19.62-.022,1.057-.043,2.064-.064,3-.086,3.911-.152,6.584-.152,6.584C988.784,1098.307,989.657,1105.609,991.216,1111.811Z" transform="translate(-973.971 -1007.431)"/>
      <path id="Trazado_277" data-name="Trazado 277" class="cls-3" d="M953.618,782.233c2.361-5.3,3.491-6.793,3.53-8.459.031-1.318-.618-2.739-1.88-6.225a12.98,12.98,0,0,1-.628-2.52c-1-6.72,2.888-13.985,5.3-14.479.672-.178,1.811-2.6,1.8-6.516l.3.06,5.086,1.007s-.116,1.6-.119,3.108c0,1.256.064,2.535.349,2.685.366.033,4.359.747,5.085,1.892.714,1.126-.082,1.23.2,5.33.371,5.476-3.49,11.968-.066,22.914C976.069,792.208,952.314,785.159,953.618,782.233Z" transform="translate(-942.334 -728.665)"/>
      <path id="Trazado_278" data-name="Trazado 278" class="cls-22" d="M1026.8,745.52s-.116,1.6-.119,3.108c-2.846-.08-4.35-2.677-4.967-4.115Z" transform="translate(-1002.003 -729.085)"/>
      <path id="Trazado_279" data-name="Trazado 279" class="cls-3" d="M1022.273,684.107s-6.733.111-6.738-4.083-.877-7,3.422-7.253,5.136,1.351,5.478,2.751S1024.025,683.969,1022.273,684.107Z" transform="translate(-996.529 -666.243)"/>
      <path id="Trazado_280" data-name="Trazado 280" class="cls-23" d="M1006.784,666.125s-1.844,4.921-4.673,5.648-4.057-.03-4.057-.03a8.013,8.013,0,0,0,2.621-4.733S1005.394,663.783,1006.784,666.125Z" transform="translate(-981.289 -659.7)"/>
      <path id="Trazado_281" data-name="Trazado 281" class="cls-23" d="M1064.56,669.689a5.944,5.944,0,0,1,1.712,2.167c.336,1.068.487,3.267,1.128,3.192,0,0,1.389-3.345-.172-5.237C1065.573,667.8,1064.56,669.689,1064.56,669.689Z" transform="translate(-1039.522 -662.865)"/>
      <path id="Trazado_282" data-name="Trazado 282" class="cls-3" d="M883.582,832.838l2.022.606s6.668-11.064,7.274-13.943c.2-.937.683-2.813,1.249-4.914,1.171-4.352,2.682-9.677,2.682-9.677l.5-2.156L899,795.4a23.022,23.022,0,0,0-5.151,1.127,2.361,2.361,0,0,0-1.277.944c-1.4,3.071-2.791,10.821-3.771,16.349-.546,3.081-.963,5.473-1.18,5.98C887.017,821.218,885.165,829,883.582,832.838Z" transform="translate(-881.055 -773.646)"/>
      <path id="Trazado_283" data-name="Trazado 283" class="cls-23" d="M1032.24,667.243s-1.313,5.153-4.884,6.8c0,0,3.57-3.166,3.873-6.567S1032.24,667.243,1032.24,667.243Z" transform="translate(-1006.946 -660.253)"/>
      <path id="Trazado_284" data-name="Trazado 284" class="cls-3" d="M943.039,1092.216a30.749,30.749,0,0,0,3.882,12.625l1.08.983s.984-5.613,1.694-12.039c.677-6.108,1.6-12.572,2.654-14.545,1.569-2.948,2.725-8.976,3.558-15.346,1.376-10.54,1.864-22.015,1.864-22.015l-12.668-.628c-1.274,2.142-1.829,5.655-1.961,9.649a97.344,97.344,0,0,0,.65,13.161c.641,5.92,1.533,10.855,1.74,11.964a.011.011,0,0,0,0,.005.661.661,0,0,1-.083.424C942.929,1081.443,942.565,1087.151,943.039,1092.216Z" transform="translate(-932.96 -988.911)"/>
      <path id="Trazado_285" data-name="Trazado 285" class="cls-34" d="M1071.712,832.5c-.2,2.577-1.164,6.043-4.877,6.584-1.313.192-2.253-.994-2.92-2.966a41.41,41.41,0,0,1-1.437-10.439c-.154-3.733-.091-7.489,0-10.14a27.821,27.821,0,0,0,5.176-1.784c.025.026.049.053.071.08s.035.043.051.065a1.027,1.027,0,0,1,.076.123c.37.7.425,4.65.609,8.376.159,3.261.419,6.351,1.073,6.958a6.587,6.587,0,0,0,2.123.281A14.712,14.712,0,0,1,1071.712,832.5Z" transform="translate(-1037.618 -789.71)"/>
      <path id="Trazado_286" data-name="Trazado 286" class="cls-35" d="M1063.138,875.989c.285,6.958,1.326,13.849,4.355,13.405,3.714-.542,4.681-4.008,4.878-6.585-.912-.046-2.517-.268-3.155-1.241-.913-1.393-3.762-10.356-3.762-10.356S1064.334,873.224,1063.138,875.989Z" transform="translate(-1038.277 -840.024)"/>
      <path id="Trazado_287" data-name="Trazado 287" class="cls-9" d="M904.681,983.435s-7.452,1.87-13.989-.307c0,0-3.589,7.62-4.577,10.886s-8.446,45.064-8.446,45.064,16.415,4.748,27.325.648c0,0,3.215-44.686,1.785-49.368S904.681,983.435,904.681,983.435Z" transform="translate(-875.879 -938.018)"/>
      <path id="Trazado_288" data-name="Trazado 288" class="cls-34" d="M906.725,815.449c-.545,5.387-2.041,12.694-2.041,12.694a12.126,12.126,0,0,1-2.505.984c-5.79,1.573-11.482-1.29-11.482-1.29s-.009-.167-.023-.368c-.012-.167-.029-.354-.048-.492-.043-.3-1.417-3.575-1.417-3.575s-.052.255-.142.688c-.5,2.391-2.227,10.247-3.284,10.954-.613.408-2.573.415-4.412-.086-1.915-.52-3.7-1.592-3.7-3.335,0-2.23,4.056-12.317,6.978-19.227a.044.044,0,0,1,0-.01c1.556-3.685,2.459-6.248,3.65-6.534,0,0,8,3.258,12.439,2.758a27.885,27.885,0,0,0,5.176-1.778c.025.026.049.053.071.08a.79.79,0,0,1,.051.065c.017.024.032.047.047.071a6.34,6.34,0,0,1,.58,3.151A27.772,27.772,0,0,1,906.725,815.449Z" transform="translate(-875.881 -782.793)"/>
      <path id="Trazado_289" data-name="Trazado 289" class="cls-35" d="M970.4,881.214s1.374,3.28,1.418,3.586c.019.138.036.327.048.493a6.775,6.775,0,0,0,2.286,1.2c2.325.7,3.335-3.752,3.2-5.976s-3.427-8.57-4.522-8.7S970.4,881.214,970.4,881.214Z" transform="translate(-957.078 -840.552)"/>
      <path id="Trazado_290" data-name="Trazado 290" class="cls-18" d="M969.264,948.065c.09-.435.142-.689.142-.689A3.513,3.513,0,0,0,969.264,948.065Z" transform="translate(-956.08 -906.714)"/>
      <g id="Grupo_71" data-name="Grupo 71" transform="translate(14.567 43.548)">
        <path id="Trazado_291" data-name="Trazado 291" class="cls-20" d="M988.6,973.869c4.244,0,5.928-1.191,6.058-1.291l.275-2c-.041.03-5.736,3.45-14.549.175l.187,1.514A22.09,22.09,0,0,0,988.6,973.869Z" transform="translate(-980.379 -970.58)"/>
      </g>
      <path id="Trazado_292" data-name="Trazado 292" class="cls-35" d="M877.67,877.906c0,1.748,1.783,2.823,3.7,3.345-2.638-3.141,3.134-22.146,3.281-22.631C881.727,865.552,877.67,875.67,877.67,877.906Z" transform="translate(-875.879 -828.998)"/>
      <g id="Grupo_72" data-name="Grupo 72" transform="translate(19.059 113.009)">
        <path id="Trazado_293" data-name="Trazado 293" class="cls-6" d="M1017.643,1534.14h1.417c.475-.075.825-.212,1.313-.276a1.314,1.314,0,0,1,1.148.276l.013.014h6.022c.152-.216.006-.718-.136-1.086a.857.857,0,0,0-.564-.515,6.5,6.5,0,0,1-3.05-1.393c-.649-.586-3.132-2.155-3.132-2.155l-.013,0c-.055,0-.314.081-1.444,1.034-.584.492-1.579-.7-1.579-.7a1.419,1.419,0,0,0-.326.443,1.5,1.5,0,0,0-.129.925,5.99,5.99,0,0,1-.431,2.233c-.141.413-.259.706-.259.706S1016.423,1533.987,1017.643,1534.14Z" transform="translate(-1016.491 -1529.001)"/>
        <path id="Trazado_294" data-name="Trazado 294" class="cls-31" d="M1023.083,1529.783a4.494,4.494,0,0,0,1.527.77c.64.084,1.836-1.549,1.836-1.549l-.013,0c-.055,0-.314.081-1.444,1.034-.584.492-1.579-.7-1.579-.7A1.419,1.419,0,0,0,1023.083,1529.783Z" transform="translate(-1022.263 -1529.001)"/>
        <path id="Trazado_295" data-name="Trazado 295" class="cls-31" d="M1017.643,1561.871h1.417c.475-.075.825-.212,1.313-.276a1.314,1.314,0,0,1,1.148.276l.013.014h6.022c.152-.216.006-.717-.136-1.086-.183-.163-.234.706-.335.845a26.848,26.848,0,0,1-5.19-.152,2.907,2.907,0,0,0-2.274-.278,5.476,5.476,0,0,1-2.87-.542c-.141.413-.259.706-.259.706S1016.423,1561.719,1017.643,1561.871Z" transform="translate(-1016.491 -1556.733)"/>
      </g>
      <g id="Grupo_73" data-name="Grupo 73" transform="translate(11.494 113.009)">
        <path id="Trazado_296" data-name="Trazado 296" class="cls-6" d="M956.827,1534.14h1.418c.475-.075.825-.212,1.313-.276a1.313,1.313,0,0,1,1.148.276l.013.014h6.022c.151-.216.006-.718-.137-1.086a.856.856,0,0,0-.564-.515,6.5,6.5,0,0,1-3.05-1.393c-.649-.586-3.132-2.155-3.132-2.155l-.013,0c-.055,0-.314.081-1.444,1.034-.584.492-1.579-.7-1.579-.7a1.42,1.42,0,0,0-.326.443,1.5,1.5,0,0,0-.129.925,5.994,5.994,0,0,1-.431,2.233c-.141.413-.259.706-.259.706S955.608,1533.987,956.827,1534.14Z" transform="translate(-955.675 -1529.001)"/>
        <path id="Trazado_297" data-name="Trazado 297" class="cls-31" d="M962.268,1529.783a4.491,4.491,0,0,0,1.527.77c.64.084,1.836-1.549,1.836-1.549l-.013,0c-.055,0-.314.081-1.444,1.034-.584.492-1.579-.7-1.579-.7A1.42,1.42,0,0,0,962.268,1529.783Z" transform="translate(-961.448 -1529.001)"/>
        <path id="Trazado_298" data-name="Trazado 298" class="cls-31" d="M956.827,1561.871h1.418c.475-.075.825-.212,1.313-.276a1.314,1.314,0,0,1,1.148.276l.013.014h6.022c.151-.216.006-.717-.137-1.086-.183-.163-.234.706-.335.845a26.852,26.852,0,0,1-5.19-.152,2.906,2.906,0,0,0-2.273-.278,5.476,5.476,0,0,1-2.87-.542c-.141.413-.259.706-.259.706S955.608,1561.719,956.827,1561.871Z" transform="translate(-955.675 -1556.733)"/>
      </g>
      <path id="Trazado_299" data-name="Trazado 299" class="cls-3" d="M865.94,1093.643a5.267,5.267,0,0,1-1.255,1.852,3.582,3.582,0,0,0-1.381,2.155,1.905,1.905,0,0,0,1.664,2.324c.808,0,1.581-1.1,2.056-3.734.026-.145.793-1.654.793-1.654Z" transform="translate(-863.27 -1034.787)"/>
      <g id="Grupo_74" data-name="Grupo 74" transform="translate(36.729 28.347)">
        <path id="Trazado_300" data-name="Trazado 300" class="cls-11" d="M1166.251,853.057l-.095.971-.3,3.06-.19,1.96h-3.907l-.24-1.96-.376-3.06-.119-.971Z" transform="translate(-1160.719 -852.474)"/>
        <path id="Trazado_301" data-name="Trazado 301" class="cls-36" d="M1164.362,848.953h-5.809l.113-.583h5.554Z" transform="translate(-1158.553 -848.37)"/>
        <path id="Trazado_302" data-name="Trazado 302" class="cls-36" d="M1166.995,860.866l-.3,3.06h-4.337l-.376-3.06Z" transform="translate(-1161.557 -859.312)"/>
      </g>
      <path id="Trazado_303" data-name="Trazado 303" class="cls-3" d="M1189.7,865.661s-.987-1.1-1.974-.26.066,2.64.922,3.131a6.944,6.944,0,0,1,1.131.748Z" transform="translate(-1147.016 -834.658)"/>
      <g id="Grupo_75" data-name="Grupo 75" transform="translate(15.271 21.932)">
        <path id="Trazado_304" data-name="Trazado 304" class="cls-4" d="M991.054,833.956l-.742-.056c.009-.016,1.453-12.987,1.029-18.372a52.235,52.235,0,0,0-5.3-18.484l1.375-.246a43.664,43.664,0,0,1,1.95,5.038,48.877,48.877,0,0,1,2.8,13.319C992.4,820.571,991.091,833.89,991.054,833.956Z" transform="translate(-986.037 -796.799)"/>
      </g>
      <g id="Grupo_78" data-name="Grupo 78" transform="translate(5.732 52.55)">
        <path id="Trazado_305" data-name="Trazado 305" class="cls-37" d="M954.042,1056.969s.721-1.775,1.868-2.219l5.856,1.1s-1.446,1.375-1.582,2.272Z" transform="translate(-948.483 -1053.283)"/>
        <path id="Trazado_306" data-name="Trazado 306" class="cls-25" d="M937.722,1081.059l-10.008-1.886a.867.867,0,0,1-.691-1.012l1.25-6.635a.866.866,0,0,1,1.012-.691l10.008,1.886a.866.866,0,0,1,.691,1.012l-1.25,6.635A.867.867,0,0,1,937.722,1081.059Z" transform="translate(-924.812 -1067.353)"/>
        <g id="Grupo_76" data-name="Grupo 76" transform="translate(4.194 0)">
          <rect id="Rectángulo_241" data-name="Rectángulo 241" class="cls-18" width="4.786" height="6.135" transform="translate(0.328 0.002) rotate(0.502)"/>
          <rect id="Rectángulo_242" data-name="Rectángulo 242" class="cls-11" width="4.786" height="6.135" transform="translate(0.054 0) rotate(0.5)"/>
        </g>
        <g id="Grupo_77" data-name="Grupo 77" transform="translate(3.991 0.474)">
          <rect id="Rectángulo_243" data-name="Rectángulo 243" class="cls-17" width="4.786" height="6.135" transform="matrix(0.794, 0.608, -0.608, 0.794, 4.154, 0.325)"/>
          <rect id="Rectángulo_244" data-name="Rectángulo 244" class="cls-16" width="4.786" height="6.135" transform="translate(3.729 0) rotate(37.43)"/>
        </g>
        <path id="Trazado_307" data-name="Trazado 307" class="cls-4" d="M919.818,1077.892l-9.583-1.806a1.083,1.083,0,0,1-.864-1.265l1.17-6.209a1.083,1.083,0,0,1,1.265-.864l9.583,1.806a1.083,1.083,0,0,1,.864,1.265l-1.17,6.209A1.083,1.083,0,0,1,919.818,1077.892Z" transform="translate(-909.353 -1064.647)"/>
      </g>
      <path id="Trazado_308" data-name="Trazado 308" class="cls-6" d="M967.8,630.355s-3.063-6.1,1.218-8.508,7.414-1.464,9.769,1.484Z" transform="translate(-953.87 -620.478)"/>
      <path id="Trazado_309" data-name="Trazado 309" class="cls-9" d="M971.062,631.4c-.881-1.412-3.964-1.184-7.684.34a30.634,30.634,0,0,0-4.558,2.358,29.379,29.379,0,0,0-4.939,3.817c-2.464,2.409-3.666,4.715-2.868,5.995a1.823,1.823,0,0,0,1.159.789c.545-1.175,2.111-2.275,2.554-3.19a13.979,13.979,0,0,1,5.111-5.448,14.284,14.284,0,0,1,5.969-2.306c.887-.057,1.541.128,1.829.59a1.537,1.537,0,0,1-.031,1.41,6.9,6.9,0,0,1,.667,1.565C970.683,634.938,971.852,632.666,971.062,631.4Z" transform="translate(-939.883 -629.217)"/>
    </g>
    <g id="Grupo_80" data-name="Grupo 80" transform="translate(316.63 185.728)">
      <path id="Trazado_310" data-name="Trazado 310" class="cls-38" d="M1798.776,296.182a17.875,17.875,0,1,0,17.875,17.875A17.9,17.9,0,0,0,1798.776,296.182Zm0,34.585a16.709,16.709,0,1,1,16.709-16.709A16.728,16.728,0,0,1,1798.776,330.767Z" transform="translate(-1780.901 -296.182)"/>
      <path id="Trazado_311" data-name="Trazado 311" class="cls-38" d="M1919.593,320.915a.712.712,0,1,0-.712-.712A.712.712,0,0,0,1919.593,320.915Z" transform="translate(-1901.717 -316.591)"/>
      <path id="Trazado_312" data-name="Trazado 312" class="cls-38" d="M1919.593,550.679a.712.712,0,1,0,.712.712A.712.712,0,0,0,1919.593,550.679Z" transform="translate(-1901.717 -519.023)"/>
      <path id="Trazado_313" data-name="Trazado 313" class="cls-38" d="M2029.458,435.084a.712.712,0,1,0,.713.713A.712.712,0,0,0,2029.458,435.084Z" transform="translate(-1997.917 -417.806)"/>
      <path id="Trazado_314" data-name="Trazado 314" class="cls-38" d="M1976.681,530.223a.713.713,0,1,0,1.007-.024A.713.713,0,0,0,1976.681,530.223Z" transform="translate(-1952.156 -500.918)"/>
      <path id="Trazado_315" data-name="Trazado 315" class="cls-38" d="M2014.171,494.588a.712.712,0,1,0,1.007-.024A.712.712,0,0,0,2014.171,494.588Z" transform="translate(-1984.983 -469.716)"/>
      <path id="Trazado_316" data-name="Trazado 316" class="cls-38" d="M2014.995,381.765a.712.712,0,1,0-.951-.333A.713.713,0,0,0,2014.995,381.765Z" transform="translate(-1984.982 -369.933)"/>
      <path id="Trazado_317" data-name="Trazado 317" class="cls-38" d="M1977.583,341.608a.712.712,0,1,0,.212.985A.712.712,0,0,0,1977.583,341.608Z" transform="translate(-1952.156 -335.857)"/>
      <path id="Trazado_318" data-name="Trazado 318" class="cls-38" d="M1818.028,433.166a.712.712,0,1,0,.712.712A.712.712,0,0,0,1818.028,433.166Z" transform="translate(-1812.786 -416.127)"/>
      <path id="Trazado_319" data-name="Trazado 319" class="cls-38" d="M1869.8,528.28a.712.712,0,1,0,1.007.024A.713.713,0,0,0,1869.8,528.28Z" transform="translate(-1858.548 -499.238)"/>
      <path id="Trazado_320" data-name="Trazado 320" class="cls-38" d="M1832.308,492.646a.712.712,0,1,0,1.007.024A.712.712,0,0,0,1832.308,492.646Z" transform="translate(-1825.72 -468.036)"/>
      <path id="Trazado_321" data-name="Trazado 321" class="cls-38" d="M1832.489,379.845a.712.712,0,1,0-.333-.951A.712.712,0,0,0,1832.489,379.845Z" transform="translate(-1825.719 -368.253)"/>
      <path id="Trazado_322" data-name="Trazado 322" class="cls-38" d="M1869.9,339.689a.712.712,0,1,0,.985.212A.712.712,0,0,0,1869.9,339.689Z" transform="translate(-1858.546 -334.177)"/>
      <path id="Trazado_323" data-name="Trazado 323" class="cls-38" d="M1929.943,348.506l-5.823,4.024a.632.632,0,0,0-.065-.036l-.625-11v11a.712.712,0,1,0,1.026.639.72.72,0,0,0-.009-.106Z" transform="translate(-1905.352 -335.857)"/>
    </g>
  </g>
</svg>
