<svg xmlns="http://www.w3.org/2000/svg" width="238.364" height="282.565" viewBox="0 0 238.364 282.565">
  <defs>
    <style>
      .cls-1 {
        fill: #e58a7b;
      }

      .cls-10, .cls-11, .cls-2 {
        fill: #407bff;
      }

      .cls-3 {
        opacity: 0.2;
      }

      .cls-4 {
        fill: #e8ecf1;
      }

      .cls-16, .cls-4 {
        mix-blend-mode: multiply;
        isolation: isolate;
      }

      .cls-5 {
        fill: #263238;
      }

      .cls-6 {
        fill: #cf6f64;
      }

      .cls-12, .cls-15, .cls-18, .cls-7 {
        fill: #fff;
      }

      .cls-8 {
        fill: #df5753;
      }

      .cls-9 {
        fill: #fafafa;
        opacity: 0.56;
      }

      .cls-10 {
        opacity: 0.07;
      }

      .cls-11 {
        opacity: 0.47;
      }

      .cls-12 {
        opacity: 0.1;
      }

      .cls-13 {
        opacity: 0.6;
      }

      .cls-14, .cls-15 {
        opacity: 0.4;
      }

      .cls-16 {
        fill: #f5f5f5;
      }

      .cls-17 {
        fill: #e0e0e0;
      }

      .cls-18 {
        opacity: 0.3;
      }
    </style>
  </defs>
  <g id="Grupo_24" data-name="Grupo 24" transform="translate(-108.755 -70.57)">
    <g id="Character_2" data-name="Character 2" transform="translate(253.409 92.453)">
      <g id="Grupo_9" data-name="Grupo 9">
        <path id="Trazado_1" data-name="Trazado 1" class="cls-1" d="M339.634,162.671l-8.042-3.261s-10.613,19.355-13.652,20.331c-4.137,1.33-12.691,5.026-17.774,5.719-.685.8-1.815,3.327-1.707,4.248,6.82,2.274,21.8-.745,25.01-3.127C330.779,181.151,339.634,162.671,339.634,162.671Z" transform="translate(-289.306 -109.265)"/>
        <g id="Grupo_5" data-name="Grupo 5" transform="translate(35.505 44.525)">
          <path id="Trazado_2" data-name="Trazado 2" class="cls-2" d="M348.262,156.967c1.5,5.545-6.627,16.683-6.627,16.683l-10.671-5.986s1.99-4.578,4.425-9.242C339.322,150.893,346.554,150.639,348.262,156.967Z" transform="translate(-330.964 -152.479)"/>
          <path id="Trazado_3" data-name="Trazado 3" class="cls-3" d="M348.262,156.967c1.5,5.545-6.627,16.683-6.627,16.683l-10.671-5.986s1.99-4.578,4.425-9.242C339.322,150.893,346.554,150.639,348.262,156.967Z" transform="translate(-330.964 -152.479)"/>
        </g>
        <path id="Trazado_4" data-name="Trazado 4" class="cls-3" d="M336.212,171.694l4.191,2.35.733-12.864C338.7,163.054,336.978,168.695,336.212,171.694Z" transform="translate(-296.452 -109.6)"/>
        <g id="Grupo_6" data-name="Grupo 6" transform="translate(40.833 42.938)">
          <path id="Trazado_5" data-name="Trazado 5" class="cls-2" d="M342.5,152.42s-8.285,18.434-3.455,52.762H371.7c.519-5.012-1.2-29.462,5.022-53.077a83.231,83.231,0,0,0-10.849-1.38,120.025,120.025,0,0,0-13.879,0A63.326,63.326,0,0,0,342.5,152.42Z" transform="translate(-337.536 -150.522)"/>
          <path id="Trazado_6" data-name="Trazado 6" class="cls-3" d="M342.5,152.42s-8.285,18.434-3.455,52.762H371.7c.519-5.012-1.2-29.462,5.022-53.077a83.231,83.231,0,0,0-10.849-1.38,120.025,120.025,0,0,0-13.879,0A63.326,63.326,0,0,0,342.5,152.42Z" transform="translate(-337.536 -150.522)"/>
        </g>
        <path id="Trazado_7" data-name="Trazado 7" class="cls-4" d="M334.323,416.774c-.051.871,12.328,1.576,27.649,1.576s27.782-.705,27.833-1.576-12.328-1.577-27.649-1.577S334.374,415.9,334.323,416.774Z" transform="translate(-296.095 -157.67)"/>
        <rect id="Rectángulo_3" data-name="Rectángulo 3" class="cls-1" width="6.227" height="13.859" transform="translate(54.995 239.459) rotate(-21.073)"/>
        <path id="Trazado_8" data-name="Trazado 8" class="cls-1" d="M391.1,406.155H385l-2.239-14.136h6.1Z" transform="translate(-305.261 -153.284)"/>
        <path id="Trazado_9" data-name="Trazado 9" class="cls-5" d="M382.748,408.582h6.858a.5.5,0,0,1,.5.417l.887,5.426a.958.958,0,0,1-.957,1.086c-2.392-.041-3.547-.182-6.563-.182-1.855,0-5.689.193-8.251.193-2.506,0-2.748-2.534-1.686-2.763,4.764-1.029,6.619-2.448,8.2-3.8A1.564,1.564,0,0,1,382.748,408.582Z" transform="translate(-303.402 -156.418)"/>
        <path id="Trazado_10" data-name="Trazado 10" class="cls-5" d="M356.943,405.5l6.5-1.891a.505.505,0,0,1,.6.253l2.41,4.861a.932.932,0,0,1-.61,1.29c-2.355.643-3.939,1.045-6.887,1.9-2.037.592-4.11,1.557-6.123,2.2a29.227,29.227,0,0,1-6.362.463c-2.506,0-3.065-2.643-1.991-2.763,2.719-.306,3.083-.164,4.584-.916a20.961,20.961,0,0,0,6.548-4.525A3.056,3.056,0,0,1,356.943,405.5Z" transform="translate(-297.92 -155.473)"/>
        <path id="Trazado_11" data-name="Trazado 11" class="cls-1" d="M299.62,190.809l-6.717-2.826-2.766,7.442a27.684,27.684,0,0,0,8.3,0Z" transform="translate(-287.733 -114.672)"/>
        <path id="Trazado_12" data-name="Trazado 12" class="cls-1" d="M287.349,187.758l-.177,4.951,2.4,2.673,2.765-7.441Z" transform="translate(-287.172 -114.63)"/>
        <g id="Grupo_7" data-name="Grupo 7" transform="translate(54.994 237.223)">
          <rect id="Rectángulo_4" data-name="Rectángulo 4" class="cls-6" width="6.229" height="7.143" transform="translate(0 2.243) rotate(-21.105)"/>
          <path id="Trazado_13" data-name="Trazado 13" class="cls-6" d="M388.866,392.023h-6.107l1.157,7.286h6.107Z" transform="translate(-360.254 -390.507)"/>
        </g>
        <path id="Trazado_14" data-name="Trazado 14" class="cls-3" d="M338.123,200.813c.117,1.467.259,2.966.434,4.507l24.277-7.881a17.4,17.4,0,0,0,9.34-6.773c.092-2.166.216-4.441.4-6.815.084-1.159.183-2.341.292-3.541.117-1.249.25-2.524.4-3.807Z" transform="translate(-296.814 -112.5)"/>
        <path id="Trazado_15" data-name="Trazado 15" class="cls-7" d="M347.707,171.992l-.827-.1c.482-4.045,3.5-7.243,6.692-7.167l-.024.833C350.794,165.48,348.14,168.364,347.707,171.992Z" transform="translate(-298.471 -110.271)"/>
        <path id="Trazado_16" data-name="Trazado 16" class="cls-7" d="M353.2,181.226l-.137,0,.024-.833c2.788.1,5.408-2.8,5.842-6.433l.826.1C359.276,178.044,356.352,181.226,353.2,181.226Z" transform="translate(-299.64 -112.018)"/>
        <path id="Trazado_17" data-name="Trazado 17" class="cls-1" d="M368.532,131.5c-1.138,4.466-2.491,12.648.459,15.628,0,0-2.06,4.53-10.358,4.53-7.582,0-3.521-4.53-3.521-4.53,5.049-1.189,5.138-4.883,4.474-8.353Z" transform="translate(-299.823 -103.983)"/>
        <path id="Trazado_18" data-name="Trazado 18" class="cls-6" d="M366.183,135.158l-5.3,4.3a13.988,13.988,0,0,1,.284,2.464c1.548,1.541,4.654-2.363,4.972-4.355A6.673,6.673,0,0,0,366.183,135.158Z" transform="translate(-301.122 -104.676)"/>
        <path id="Trazado_19" data-name="Trazado 19" class="cls-6" d="M349.578,130.475a5.32,5.32,0,0,0,3.439,2.543c1.947.434,2.925-1.357,2.388-3.16-.483-1.622-2.078-3.8-4.034-3.429A2.7,2.7,0,0,0,349.578,130.475Z" transform="translate(-298.912 -103.016)"/>
        <path id="Trazado_20" data-name="Trazado 20" class="cls-5" d="M352.987,113.743c-3.032,1.39-4.1,13.436-.289,15.216S358.731,111.112,352.987,113.743Z" transform="translate(-299.109 -100.577)"/>
        <path id="Trazado_21" data-name="Trazado 21" class="cls-1" d="M368.944,121.135c-.726,6.047-.845,9.605-4.081,12.709a7.794,7.794,0,0,1-13.258-4.136c-.98-5.433.372-14.409,6.432-16.815A7.81,7.81,0,0,1,368.944,121.135Z" transform="translate(-299.31 -100.342)"/>
        <path id="Trazado_22" data-name="Trazado 22" class="cls-5" d="M357.908,113.861c4.485-1.147,7.786-1.929,6.608,1.815-1.57,4.988-3.451,9.82-.927,10.045,1.536.137,8.347-2.753,7.482-5.675-.753-2.546,2.413-3.233,3-4.531,2.1-4.675-3.9-4.068-2.835-6.9,1.041-2.754-4.839-7.41-8.1-5.135-5.274,3.682-14.338,3.629-9.573-2.41,3.413-4.325-2.676-3.437-2.676-3.437s3.678,2.182-2.513,5.555C341.81,106.766,347.817,116.442,357.908,113.861Z" transform="translate(-298.234 -97.561)"/>
        <path id="Trazado_23" data-name="Trazado 23" class="cls-1" d="M374.537,130.475a6.227,6.227,0,0,1-3.738,2.543c-2,.434-2.766-1.357-2.017-3.16.673-1.622,2.524-3.8,4.436-3.429C375.1,126.8,375.61,128.886,374.537,130.475Z" transform="translate(-302.562 -103.016)"/>
        <path id="Trazado_24" data-name="Trazado 24" class="cls-2" d="M338.02,217.94s-5.481,49.049-5.908,67.664c-.444,19.363,18.573,79.774,18.573,79.774l9.738-4.089s-11.339-55.191-9.763-74.207c1.716-20.731,8.822-69.142,8.822-69.142Z" transform="translate(-295.675 -120.341)"/>
        <path id="Trazado_25" data-name="Trazado 25" class="cls-3" d="M355.675,234.092c-4.366,9.065-1.425,26.986.941,37.609.9-7.5,1.966-15.639,2.983-23.17C359.5,236.95,358.6,228.011,355.675,234.092Z" transform="translate(-299.711 -123.026)"/>
        <path id="Trazado_26" data-name="Trazado 26" class="cls-2" d="M363.727,390.826c.045-.019,1.155,3.1,1.155,3.1l-11.224,4.714-1.768-3.288Z" transform="translate(-299.419 -153.058)"/>
        <path id="Trazado_27" data-name="Trazado 27" class="cls-2" d="M353.686,217.94s4.192,46.65,6.971,64.126c3.043,19.138,15,82.889,15,82.889h11.18s-6.7-62.206-7.964-81.154c-1.373-20.566-4.115-65.862-4.115-65.862Z" transform="translate(-299.759 -120.341)"/>
        <path id="Trazado_28" data-name="Trazado 28" class="cls-2" d="M391.794,395.568c.048,0,.374,3.125.374,3.125H379.879L379,395.106Z" transform="translate(-304.55 -153.868)"/>
        <path id="Trazado_29" data-name="Trazado 29" class="cls-3" d="M386.911,359.891a.1.1,0,0,1-.1-.092c-.061-.565-6.1-56.727-7.239-73.751-1.233-18.475-3.713-59.439-3.738-59.85a.1.1,0,0,1,.1-.11h.007a.1.1,0,0,1,.1.1c.024.411,2.5,41.375,3.738,59.848,1.136,17.021,7.176,73.179,7.238,73.743a.1.1,0,0,1-.092.114Z" transform="translate(-303.949 -121.883)"/>
        <path id="Trazado_30" data-name="Trazado 30" class="cls-5" d="M361.352,125.085c-.029.492-.313.891-.635.891s-.559-.4-.53-.891.313-.892.635-.892S361.381,124.593,361.352,125.085Z" transform="translate(-300.989 -102.601)"/>
        <path id="Trazado_31" data-name="Trazado 31" class="cls-5" d="M354.487,125.085c-.029.492-.313.891-.635.891s-.559-.4-.531-.891.314-.892.636-.892S354.516,124.593,354.487,125.085Z" transform="translate(-299.69 -102.601)"/>
        <path id="Trazado_32" data-name="Trazado 32" class="cls-8" d="M356.317,125.6a18.993,18.993,0,0,1-2.6,4.211,2.771,2.771,0,0,0,2.326.441Z" transform="translate(-299.765 -102.866)"/>
        <path id="Trazado_33" data-name="Trazado 33" class="cls-5" d="M357.067,133.442a.135.135,0,0,1-.136-.144.156.156,0,0,1,.153-.145,4.17,4.17,0,0,0,3.269-1.525.149.149,0,0,1,.2-.041.14.14,0,0,1,.03.2A4.419,4.419,0,0,1,357.067,133.442Z" transform="translate(-300.373 -103.996)"/>
        <path id="Trazado_34" data-name="Trazado 34" class="cls-5" d="M362.21,123.22a.287.287,0,0,1-.255-.022,2.283,2.283,0,0,0-2.065-.216.278.278,0,0,1-.378-.135.3.3,0,0,1,.158-.386,2.847,2.847,0,0,1,2.614.242.281.281,0,0,1,.074.4A.318.318,0,0,1,362.21,123.22Z" transform="translate(-300.857 -102.233)"/>
        <path id="Trazado_35" data-name="Trazado 35" class="cls-5" d="M352.06,121.1a.259.259,0,0,1-.11-.062.287.287,0,0,1,0-.408,3.015,3.015,0,0,1,2.5-1.005.269.269,0,0,1,.224.329.309.309,0,0,1-.341.243h0a2.412,2.412,0,0,0-1.972.817A.3.3,0,0,1,352.06,121.1Z" transform="translate(-299.414 -101.734)"/>
        <path id="Trazado_36" data-name="Trazado 36" class="cls-1" d="M380.85,161.793l-8.434-2.245s-8.271,20.356-11.191,21.685c-3.975,1.809-14.041,8.065-18.318,11.081-.238,1.009-.051,3.7.487,4.429,7.273-1.322,21.266-6.7,24.184-9.435C374.232,181.075,380.85,161.793,380.85,161.793Z" transform="translate(-297.7 -109.291)"/>
        <path id="Trazado_37" data-name="Trazado 37" class="cls-2" d="M382.139,409.536a1.776,1.776,0,0,1-1.157-.311.826.826,0,0,1-.254-.765.493.493,0,0,1,.272-.409c.688-.345,2.593.863,2.808,1a.14.14,0,0,1,.058.147.157.157,0,0,1-.116.117A7.383,7.383,0,0,1,382.139,409.536Zm-.833-1.263a.423.423,0,0,0-.19.036.187.187,0,0,0-.1.169.559.559,0,0,0,.165.525,2.9,2.9,0,0,0,2.161.109A5.5,5.5,0,0,0,381.307,408.273Z" transform="translate(-304.875 -156.306)"/>
        <path id="Trazado_38" data-name="Trazado 38" class="cls-2" d="M384.025,408.987a.144.144,0,0,1-.068-.017c-.612-.343-1.755-1.681-1.585-2.362a.507.507,0,0,1,.482-.379.755.755,0,0,1,.6.186c.675.58.717,2.341.719,2.416a.154.154,0,0,1-.074.132A.149.149,0,0,1,384.025,408.987Zm-1.086-2.474c-.022,0-.044,0-.066,0-.189.023-.211.109-.22.146-.1.4.619,1.413,1.219,1.89a3.3,3.3,0,0,0-.608-1.913A.482.482,0,0,0,382.939,406.512Z" transform="translate(-305.184 -155.972)"/>
        <path id="Trazado_39" data-name="Trazado 39" class="cls-2" d="M355.467,408.349a2.31,2.31,0,0,1-1.529-.01.753.753,0,0,1-.395-.619.483.483,0,0,1,.165-.43c.653-.581,3.3.044,3.6.117a.134.134,0,0,1,.1.126.157.157,0,0,1-.091.146A11.041,11.041,0,0,1,355.467,408.349Zm-1.318-.963a.608.608,0,0,0-.256.116.183.183,0,0,0-.062.172.493.493,0,0,0,.257.41c.431.234,1.43.049,2.717-.49A7.853,7.853,0,0,0,354.149,407.385Z" transform="translate(-299.731 -156.127)"/>
        <path id="Trazado_40" data-name="Trazado 40" class="cls-2" d="M357.573,407.287a.154.154,0,0,1-.061,0c-.786-.145-2.464-1.078-2.479-1.776,0-.163.073-.387.457-.521a1.035,1.035,0,0,1,.835.049c.88.435,1.341,1.991,1.36,2.058a.151.151,0,0,1-.035.142A.155.155,0,0,1,357.573,407.287Zm-1.917-2.048-.084.025c-.251.088-.25.191-.249.225.01.418,1.176,1.189,2,1.448a3.13,3.13,0,0,0-1.135-1.635A.755.755,0,0,0,355.656,405.239Z" transform="translate(-300.014 -155.726)"/>
        <path id="Trazado_41" data-name="Trazado 41" class="cls-1" d="M341.576,199.373l-8.455,3.892-.981,2.385,3.125,2.1s5.831-.635,7.492-4.381Z" transform="translate(-295.682 -116.828)"/>
        <path id="Trazado_42" data-name="Trazado 42" class="cls-5" d="M343.855,204.292a11.666,11.666,0,0,0-1.571-4.588l1.333-1a12.86,12.86,0,0,1,1.882,5.311Z" transform="translate(-297.601 -116.701)"/>
        <path id="Trazado_43" data-name="Trazado 43" class="cls-5" d="M345.288,200.612a1.625,1.625,0,1,1-1.977-.63A1.48,1.48,0,0,1,345.288,200.612Z" transform="translate(-297.594 -116.917)"/>
        <path id="Trazado_44" data-name="Trazado 44" class="cls-1" d="M326.3,207.315l1.123,1.137,7.586-3.245-3-1.035Z" transform="translate(-294.577 -117.736)"/>
        <path id="Trazado_45" data-name="Trazado 45" class="cls-3" d="M363.727,390.826c.045-.019,1.155,3.1,1.155,3.1l-11.224,4.714-1.768-3.288Z" transform="translate(-299.419 -153.058)"/>
        <path id="Trazado_46" data-name="Trazado 46" class="cls-3" d="M391.794,395.568c.048,0,.374,3.125.374,3.125H379.879L379,395.106Z" transform="translate(-304.55 -153.868)"/>
        <g id="Grupo_8" data-name="Grupo 8" transform="translate(66.857 44.398)">
          <path id="Trazado_47" data-name="Trazado 47" class="cls-2" d="M388.125,158.093c2.231,7.188-6.453,17.01-6.453,17.01l-12.038-4.913a123.487,123.487,0,0,1,4.924-12.221C378.226,150.015,385.874,150.837,388.125,158.093Z" transform="translate(-369.634 -152.322)"/>
          <path id="Trazado_48" data-name="Trazado 48" class="cls-3" d="M388.125,158.093c2.231,7.188-6.453,17.01-6.453,17.01l-12.038-4.913a123.487,123.487,0,0,1,4.924-12.221C378.226,150.015,385.874,150.837,388.125,158.093Z" transform="translate(-369.634 -152.322)"/>
        </g>
      </g>
    </g>
    <g id="Screen" transform="translate(174.288 70.57)">
      <g id="Grupo_11" data-name="Grupo 11">
        <rect id="Rectángulo_5" data-name="Rectángulo 5" class="cls-2" width="5.179" height="0.833" transform="translate(39.648)"/>
        <rect id="Rectángulo_6" data-name="Rectángulo 6" class="cls-2" width="13.926" height="0.832" transform="translate(111.272 46.962) rotate(-87.421)"/>
        <path id="Trazado_49" data-name="Trazado 49" class="cls-2" d="M301.2,75.194H205.535l-8.906,199.22H292.3Z" transform="translate(-190.918 -71.445)"/>
        <path id="Trazado_50" data-name="Trazado 50" class="cls-9" d="M297.682,78.566H202.013l-8.906,199.22h95.669Z" transform="translate(-190.251 -72.083)"/>
        <path id="Trazado_51" data-name="Trazado 51" class="cls-10" d="M294.159,81.937H198.49l-8.906,199.22h95.669Z" transform="translate(-189.584 -72.721)"/>
        <path id="Trazado_52" data-name="Trazado 52" class="cls-7" d="M285.918,189.106H204.26l-.682,15.248h81.658Z" transform="translate(-192.232 -93.001)"/>
        <path id="Trazado_53" data-name="Trazado 53" class="cls-2" d="M249.376,175.39H204.961l-.3,6.822h44.416Z" transform="translate(-192.436 -90.406)"/>
        <path id="Trazado_54" data-name="Trazado 54" class="cls-7" d="M283.649,239.849H201.991l-.682,15.247h81.658Z" transform="translate(-191.803 -102.604)"/>
        <path id="Trazado_55" data-name="Trazado 55" class="cls-11" d="M271.391,284.036H216.479l-.817,18.274h54.912Z" transform="translate(-194.519 -110.966)"/>
        <path id="Trazado_56" data-name="Trazado 56" class="cls-7" d="M267.029,305.756H212.117a.1.1,0,0,1-.07-.031.094.094,0,0,1-.026-.071l.817-18.274a.1.1,0,0,1,.1-.093h54.911a.1.1,0,0,1,.07.031.092.092,0,0,1,.027.071l-.817,18.274A.1.1,0,0,1,267.029,305.756Zm-54.811-.194h54.718l.808-18.081H213.025Z" transform="translate(-193.83 -111.581)"/>
        <path id="Trazado_57" data-name="Trazado 57" class="cls-2" d="M239.35,226.134H202.692l-.305,6.822h36.658Z" transform="translate(-192.007 -100.008)"/>
        <path id="Trazado_58" data-name="Trazado 58" class="cls-7" d="M273.407,123.531a21.465,21.465,0,0,1-4.512,12.205,21.807,21.807,0,0,1-17.187,8.565,19.7,19.7,0,0,1-19.834-20.77,21.929,21.929,0,0,1,21.69-20.771A19.689,19.689,0,0,1,273.407,123.531Z" transform="translate(-197.583 -76.661)"/>
        <path id="Trazado_59" data-name="Trazado 59" class="cls-2" d="M282.938,106.835a5.705,5.705,0,0,1-1.2,3.243,5.8,5.8,0,0,1-4.567,2.276,5.235,5.235,0,0,1-5.271-5.519,5.827,5.827,0,0,1,5.764-5.519A5.231,5.231,0,0,1,282.938,106.835Z" transform="translate(-205.161 -76.388)"/>
        <path id="Trazado_60" data-name="Trazado 60" class="cls-5" d="M214.124,197.939a2.58,2.58,0,0,1-2.552,2.443,2.316,2.316,0,0,1-2.334-2.443,2.58,2.58,0,0,1,2.552-2.443A2.315,2.315,0,0,1,214.124,197.939Z" transform="translate(-193.303 -94.21)"/>
        <path id="Trazado_61" data-name="Trazado 61" class="cls-5" d="M227.611,197.939a2.579,2.579,0,0,1-2.552,2.443,2.315,2.315,0,0,1-2.333-2.443,2.579,2.579,0,0,1,2.552-2.443A2.315,2.315,0,0,1,227.611,197.939Z" transform="translate(-195.855 -94.21)"/>
        <path id="Trazado_62" data-name="Trazado 62" class="cls-5" d="M241.1,197.939a2.58,2.58,0,0,1-2.552,2.443,2.315,2.315,0,0,1-2.334-2.443,2.58,2.58,0,0,1,2.552-2.443A2.316,2.316,0,0,1,241.1,197.939Z" transform="translate(-198.408 -94.21)"/>
        <path id="Trazado_63" data-name="Trazado 63" class="cls-5" d="M211.856,248.682a2.58,2.58,0,0,1-2.552,2.444,2.316,2.316,0,0,1-2.334-2.444,2.58,2.58,0,0,1,2.552-2.443A2.316,2.316,0,0,1,211.856,248.682Z" transform="translate(-192.874 -103.813)"/>
        <path id="Trazado_64" data-name="Trazado 64" class="cls-5" d="M225.343,248.682a2.58,2.58,0,0,1-2.552,2.444,2.317,2.317,0,0,1-2.334-2.444,2.58,2.58,0,0,1,2.552-2.443A2.316,2.316,0,0,1,225.343,248.682Z" transform="translate(-195.426 -103.813)"/>
        <path id="Trazado_65" data-name="Trazado 65" class="cls-5" d="M238.83,248.682a2.58,2.58,0,0,1-2.552,2.444,2.317,2.317,0,0,1-2.334-2.444,2.58,2.58,0,0,1,2.553-2.443A2.315,2.315,0,0,1,238.83,248.682Z" transform="translate(-197.978 -103.813)"/>
        <path id="Trazado_66" data-name="Trazado 66" class="cls-5" d="M252.318,248.682a2.58,2.58,0,0,1-2.553,2.444,2.315,2.315,0,0,1-2.333-2.444,2.58,2.58,0,0,1,2.552-2.443A2.316,2.316,0,0,1,252.318,248.682Z" transform="translate(-200.531 -103.813)"/>
        <path id="Trazado_67" data-name="Trazado 67" class="cls-5" d="M265.8,248.682a2.58,2.58,0,0,1-2.552,2.444,2.316,2.316,0,0,1-2.334-2.444,2.58,2.58,0,0,1,2.552-2.443A2.316,2.316,0,0,1,265.8,248.682Z" transform="translate(-203.083 -103.813)"/>
        <g id="Grupo_10" data-name="Grupo 10" transform="translate(37.711 28.048)">
          <ellipse id="Elipse_8" data-name="Elipse 8" class="cls-2" cx="8.59" cy="8.215" rx="8.59" ry="8.215" transform="matrix(0.715, -0.699, 0.699, 0.715, 5.771, 12.011)"/>
          <path id="Trazado_68" data-name="Trazado 68" class="cls-2" d="M269.7,141.922a21.807,21.807,0,0,1-17.187,8.565,19.7,19.7,0,0,1-16.414-8.565c3.942-3.924,10.179-6.473,17.086-6.473S266.108,138,269.7,141.922Z" transform="translate(-236.097 -110.895)"/>
          <ellipse id="Elipse_9" data-name="Elipse 9" class="cls-12" cx="8.59" cy="8.215" rx="8.59" ry="8.215" transform="matrix(0.715, -0.699, 0.699, 0.715, 5.771, 12.011)"/>
          <path id="Trazado_69" data-name="Trazado 69" class="cls-12" d="M269.7,141.922a21.807,21.807,0,0,1-17.187,8.565,19.7,19.7,0,0,1-16.414-8.565c3.942-3.924,10.179-6.473,17.086-6.473S266.108,138,269.7,141.922Z" transform="translate(-236.097 -110.895)"/>
        </g>
      </g>
    </g>
    <g id="Character_1" data-name="Character 1" transform="translate(108.755 141.344)">
      <g id="Grupo_23" data-name="Grupo 23" transform="translate(0 0)">
        <g id="Grupo_18" data-name="Grupo 18" transform="translate(4.299)">
          <path id="Trazado_70" data-name="Trazado 70" class="cls-1" d="M127.313,211.772c-.768,1.684-1.575,3.537-2.286,5.344-.715,1.824-1.429,3.651-2.05,5.5a69.533,69.533,0,0,0-2.9,11.189L119.895,235a1.821,1.821,0,0,0,.059.6,6.216,6.216,0,0,0,.891,1.88,23.6,23.6,0,0,0,3.6,4.038,54.984,54.984,0,0,0,4.475,3.742c1.556,1.2,3.2,2.368,4.8,3.465l-1.51,2.846a57.515,57.515,0,0,1-10.93-6.234,26.121,26.121,0,0,1-4.9-4.6,11.513,11.513,0,0,1-1.939-3.464,7.756,7.756,0,0,1-.391-2.388c0-.2.016-.482.03-.616l.04-.4.081-.805a63.093,63.093,0,0,1,2.647-12.435c.632-2,1.308-3.982,2.078-5.926.786-1.956,1.562-3.834,2.546-5.8Z" transform="translate(-114.058 -167.521)"/>
          <path id="Trazado_71" data-name="Trazado 71" class="cls-1" d="M136.561,256.754l5.729-2.907-1.48,6.3s-3.934,1.1-5.763-.811Z" transform="translate(-118.03 -176.027)"/>
          <path id="Trazado_72" data-name="Trazado 72" class="cls-1" d="M148.881,254.881l-1.524,5.2-5.2.059,1.48-6.3Z" transform="translate(-119.375 -176.027)"/>
          <path id="Trazado_73" data-name="Trazado 73" class="cls-8" d="M160.432,175a16.172,16.172,0,0,0,1.285,3.206,1.314,1.314,0,0,1-1.285.412Z" transform="translate(-122.834 -161.107)"/>
          <ellipse id="Elipse_10" data-name="Elipse 10" class="cls-5" cx="0.607" cy="0.929" rx="0.607" ry="0.929" transform="translate(36.822 12.084)"/>
          <path id="Trazado_74" data-name="Trazado 74" class="cls-5" d="M160.04,172.72l1.232-.355S160.64,173.327,160.04,172.72Z" transform="translate(-122.76 -160.608)"/>
          <path id="Trazado_75" data-name="Trazado 75" class="cls-1" d="M140.626,182.336c.739,3.774,1.478,10.69-1.163,13.208,0,0,1.032,3.829,8.045,3.829,7.712,0,3.686-3.828,3.686-3.828-4.209-1.005-4.1-4.128-3.367-7.061Z" transform="translate(-118.866 -162.495)"/>
          <path id="Trazado_76" data-name="Trazado 76" class="cls-1" d="M138.369,169.582c.387,6.3.416,8.976,3.6,12.21,4.787,4.865,12.441,3.011,13.945-3.278,1.353-5.662.493-15.015-5.675-17.522A8.61,8.61,0,0,0,138.369,169.582Z" transform="translate(-118.655 -158.33)"/>
          <path id="Trazado_77" data-name="Trazado 77" class="cls-5" d="M137.583,162.879c-3.16,1.152-7.375.3-5.721,10.048,1.751,10.326-.945,13.723-.945,13.723a64.365,64.365,0,0,0,24.235-.152s-3.738-6.537-2.689-11.306c1.338-6.083.278-8.331.278-8.331S142.026,161.259,137.583,162.879Z" transform="translate(-117.249 -158.757)"/>
          <path id="Trazado_78" data-name="Trazado 78" class="cls-1" d="M155.64,175.381a6.355,6.355,0,0,0,.992,3.38c.855,1.314,1.868.779,2.121-.585.229-1.227.059-3.391-1.035-4.229C156.642,173.12,155.655,173.954,155.64,175.381Z" transform="translate(-121.927 -160.845)"/>
          <path id="Trazado_79" data-name="Trazado 79" class="cls-5" d="M135.726,163.089c-.912-2.55,3.421-6.472,12.58-4.841s9.562,9.25,9.562,9.25l-1.853-2.2.083,2.316-9.413,1.81Z" transform="translate(-118.136 -157.863)"/>
          <g id="Grupo_12" data-name="Grupo 12" transform="translate(18.348 30.746)">
            <path id="Trazado_80" data-name="Trazado 80" class="cls-2" d="M136.708,198.518h0a1.427,1.427,0,0,1,1.176-1.641c2.852-.471,9.335-1.425,12.6-.973,2.424.336,3.065,1.751,3.168,2.909a1.43,1.43,0,0,1-1.5,1.543l-14.1-.636A1.432,1.432,0,0,1,136.708,198.518Z" transform="translate(-136.689 -195.786)"/>
            <path id="Trazado_81" data-name="Trazado 81" class="cls-13" d="M136.708,198.518h0a1.427,1.427,0,0,1,1.176-1.641c2.852-.471,9.335-1.425,12.6-.973,2.424.336,3.065,1.751,3.168,2.909a1.43,1.43,0,0,1-1.5,1.543l-14.1-.636A1.432,1.432,0,0,1,136.708,198.518Z" transform="translate(-136.689 -195.786)"/>
          </g>
          <path id="Trazado_82" data-name="Trazado 82" class="cls-1" d="M146.76,371.094l5.225,3.628,8.749-11.858-5.225-3.627Z" transform="translate(-120.247 -195.971)"/>
          <path id="Trazado_83" data-name="Trazado 83" class="cls-1" d="M131.715,370.639l5.527,3.148,7.744-12.541-5.527-3.148Z" transform="translate(-117.399 -195.755)"/>
          <g id="Grupo_13" data-name="Grupo 13" transform="translate(18.062 162.345)">
            <path id="Trazado_84" data-name="Trazado 84" class="cls-6" d="M161.72,362.866l-4.509,6.113-5.227-3.629,4.509-6.113Z" transform="translate(-139.297 -358.316)"/>
            <path id="Trazado_85" data-name="Trazado 85" class="cls-6" d="M140.33,358.1l5.53,3.149-3.994,6.463-5.53-3.149Z" transform="translate(-136.336 -358.101)"/>
          </g>
          <g id="Grupo_14" data-name="Grupo 14" transform="translate(10.501 73.07)">
            <path id="Trazado_86" data-name="Trazado 86" class="cls-2" d="M147.431,247.988s20.415,25.73,16.585,50.334c-3.093,19.873-21.008,46.783-21.008,46.783l-8.425-4.187a275.193,275.193,0,0,0,15.163-36.842,27.233,27.233,0,0,0-3.266-23.591c-10.341-15.1-26.909-6.118-15.764-32.5Z" transform="translate(-127.01 -247.988)"/>
            <path id="Trazado_87" data-name="Trazado 87" class="cls-13" d="M147.431,247.988s20.415,25.73,16.585,50.334c-3.093,19.873-21.008,46.783-21.008,46.783l-8.425-4.187a275.193,275.193,0,0,0,15.163-36.842,27.233,27.233,0,0,0-3.266-23.591c-10.341-15.1-26.909-6.118-15.764-32.5Z" transform="translate(-127.01 -247.988)"/>
          </g>
          <path id="Trazado_88" data-name="Trazado 88" class="cls-14" d="M163.857,267.692l-2.966-2.949c0,.233,5.748,35.717,7.365,45.69a60.8,60.8,0,0,0,2.174-8.94C172.3,289.445,168.364,277.123,163.857,267.692Z" transform="translate(-122.921 -178.089)"/>
          <g id="Grupo_15" data-name="Grupo 15" transform="translate(16.127 73.07)">
            <path id="Trazado_89" data-name="Trazado 89" class="cls-2" d="M157.862,247.988s24.582,32.333,25.273,51.723c.579,16.247-26.776,47.628-26.776,47.628l-7.941-5.137s16-22.311,20.023-40.547c-1.536-18.052-34.491-53.667-34.491-53.667Z" transform="translate(-133.949 -247.988)"/>
            <path id="Trazado_90" data-name="Trazado 90" class="cls-13" d="M157.862,247.988s24.582,32.333,25.273,51.723c.579,16.247-26.776,47.628-26.776,47.628l-7.941-5.137s16-22.311,20.023-40.547c-1.536-18.052-34.491-53.667-34.491-53.667Z" transform="translate(-133.949 -247.988)"/>
          </g>
          <path id="Trazado_91" data-name="Trazado 91" class="cls-2" d="M124.731,200.384c-2.633.621-5.148,10.177-5.148,10.177l10.266,6.853s3.421-7.553,2.227-10.862C130.832,203.107,128.055,199.6,124.731,200.384Z" transform="translate(-115.104 -165.889)"/>
          <path id="Trazado_92" data-name="Trazado 92" class="cls-3" d="M128.244,207.994l-.717,8.326,3.822,2.558a34.207,34.207,0,0,0,2.324-7.406Z" transform="translate(-116.607 -167.35)"/>
          <path id="Trazado_93" data-name="Trazado 93" class="cls-2" d="M159.385,200.207s3.031,1.068-3.04,38.39H130.512c.434-10.514.446-17-4.579-38.574a76.3,76.3,0,0,1,10.97-1.446,82.243,82.243,0,0,1,11.731,0C153.672,199.038,159.385,200.207,159.385,200.207Z" transform="translate(-116.305 -165.528)"/>
          <path id="Trazado_94" data-name="Trazado 94" class="cls-1" d="M168.986,207.337c.585,1.617,1.2,3.366,1.849,5.047q.927,2.558,1.923,5.1l1.988,5.093.5,1.272.252.636.126.318c.022.058.018.053.01.046a1.781,1.781,0,0,0-.568-.506,2.26,2.26,0,0,0-1.059-.309,2.1,2.1,0,0,0-.9.163c-.366.175-.371.25-.363.238a1.051,1.051,0,0,0,.182-.184,11.6,11.6,0,0,0,1.159-1.889c.383-.743.746-1.538,1.107-2.344.717-1.616,1.37-3.3,2.034-4.991s1.275-3.413,1.888-5.136l1.846-5.175,3.124.788c-.619,3.7-1.417,7.326-2.37,10.964-.465,1.823-1,3.631-1.619,5.455-.306.914-.65,1.825-1.043,2.754a16.929,16.929,0,0,1-1.541,2.933,7.2,7.2,0,0,1-.707.875,4.52,4.52,0,0,1-1.477,1.043,3.66,3.66,0,0,1-1.574.294,3.616,3.616,0,0,1-1.712-.516,4.288,4.288,0,0,1-1.474-1.532c-.124-.205-.229-.418-.3-.571l-.154-.315-.307-.629L169.192,225c-.8-1.687-1.585-3.383-2.329-5.1s-1.454-3.447-2.149-5.19c-.666-1.768-1.325-3.481-1.91-5.362Z" transform="translate(-123.282 -166.73)"/>
          <path id="Trazado_95" data-name="Trazado 95" class="cls-2" d="M165.427,200.58c3.105.74,6.594,9.914,6.594,9.914l-9.228,7.864s-5.98-10-4.771-13.307C159.282,201.611,161.371,199.614,165.427,200.58Z" transform="translate(-122.347 -165.901)"/>
          <path id="Trazado_96" data-name="Trazado 96" class="cls-1" d="M186.624,200.557l3.238-2.709,2.253,3.51-1.66,2.931s-2.643,2.419-4.984,1.189h0A4.206,4.206,0,0,1,186.624,200.557Z" transform="translate(-127.505 -165.43)"/>
          <path id="Trazado_97" data-name="Trazado 97" class="cls-1" d="M196.849,197.856l-.242.883-5.131.862-.506-1.753Z" transform="translate(-128.613 -165.43)"/>
          <path id="Trazado_98" data-name="Trazado 98" class="cls-2" d="M160.241,368.983l-9.258-5.989,1.658-2.883,10.4,6.4Z" transform="translate(-121.046 -196.136)"/>
          <path id="Trazado_99" data-name="Trazado 99" class="cls-5" d="M142.43,376.577a5.551,5.551,0,0,1-2.292-.794.149.149,0,0,1-.076-.147.151.151,0,0,1,.1-.129c.25-.079,2.446-.752,3.069-.229a.513.513,0,0,1,.172.489.852.852,0,0,1-.457.7A1.146,1.146,0,0,1,142.43,376.577Zm-1.823-.885c1.008.512,1.818.7,2.208.508a.566.566,0,0,0,.294-.473.213.213,0,0,0-.069-.217C142.713,375.234,141.5,375.448,140.607,375.692Z" transform="translate(-118.979 -198.969)"/>
          <path id="Trazado_100" data-name="Trazado 100" class="cls-5" d="M140.212,375.383a.15.15,0,0,1-.145-.191c.021-.075.527-1.836,1.36-2.236a.784.784,0,0,1,.668-.02.524.524,0,0,1,.373.542c-.057.729-1.542,1.736-2.22,1.9A.171.171,0,0,1,140.212,375.383Zm1.571-2.211a.524.524,0,0,0-.226.055c-.5.239-.913,1.189-1.112,1.767.713-.3,1.687-1.1,1.722-1.54.006-.072-.011-.166-.19-.241A.494.494,0,0,0,141.783,373.173Z" transform="translate(-118.979 -198.551)"/>
          <path id="Trazado_101" data-name="Trazado 101" class="cls-5" d="M156.585,380.745c-.913,0-2.186-1.173-2.882-1.894a.152.152,0,0,1-.027-.173.164.164,0,0,1,.153-.083c.321.042,3.141.422,3.54,1.219a.488.488,0,0,1-.019.474.836.836,0,0,1-.642.448A1.019,1.019,0,0,1,156.585,380.745Zm-2.349-1.785c1.025,1,1.921,1.547,2.435,1.479a.543.543,0,0,0,.418-.3.186.186,0,0,0,.011-.191C156.883,379.516,155.377,379.143,154.237,378.96Z" transform="translate(-121.552 -199.634)"/>
          <path id="Trazado_102" data-name="Trazado 102" class="cls-5" d="M154.326,378.6a3.066,3.066,0,0,1-.542-.041.151.151,0,0,1-.088-.244c.046-.056,1.143-1.378,2.179-1.47a1.1,1.1,0,0,1,.834.263c.319.273.3.516.222.671C156.674,378.324,155.273,378.6,154.326,378.6Zm-.209-.3c.906.05,2.354-.251,2.543-.645.016-.033.064-.134-.146-.313a.79.79,0,0,0-.611-.191A3.484,3.484,0,0,0,154.117,378.3Z" transform="translate(-121.552 -199.303)"/>
          <path id="Trazado_103" data-name="Trazado 103" class="cls-2" d="M138.214,374.459l-6.876-1.944a.5.5,0,0,0-.607.281l-2.321,5.219a1.022,1.022,0,0,0,.674,1.366c2.41.636,3.6.822,6.628,1.677,1.861.526,4.524,1.488,7.093,2.214,2.513.71,3.424-1.776,2.419-2.308-4.505-2.388-4.861-4.025-6.093-5.838A1.659,1.659,0,0,0,138.214,374.459Z" transform="translate(-116.759 -198.48)"/>
          <path id="Trazado_104" data-name="Trazado 104" class="cls-2" d="M151.452,376.77l-5.87-4.076a.5.5,0,0,0-.665.068l-3.893,4.18a1.022,1.022,0,0,0,.193,1.51c2.071,1.386,3.14,1.951,5.722,3.742,1.588,1.1,4.758,3.549,6.951,5.071,2.145,1.489,3.815-.565,3.039-1.4-3.483-3.724-4.252-6.057-4.826-8.173A1.663,1.663,0,0,0,151.452,376.77Z" transform="translate(-119.113 -198.499)"/>
          <path id="Trazado_105" data-name="Trazado 105" class="cls-2" d="M145.6,366.539l-10.585-5.261,1.1-2.864,11.3,5.539Z" transform="translate(-118.025 -195.815)"/>
          <g id="Grupo_16" data-name="Grupo 16" transform="translate(12.904 71.36)">
            <path id="Trazado_106" data-name="Trazado 106" class="cls-2" d="M130.89,246.073l-.9,2.312c-.09.18.122.362.421.362h26.823c.233,0,.426-.114.44-.26l.233-2.312c.016-.161-.186-.3-.44-.3h-26.16A.47.47,0,0,0,130.89,246.073Z" transform="translate(-129.973 -245.879)"/>
            <path id="Trazado_107" data-name="Trazado 107" class="cls-15" d="M130.89,246.073l-.9,2.312c-.09.18.122.362.421.362h26.823c.233,0,.426-.114.44-.26l.233-2.312c.016-.161-.186-.3-.44-.3h-26.16A.47.47,0,0,0,130.89,246.073Z" transform="translate(-129.973 -245.879)"/>
          </g>
          <g id="Grupo_17" data-name="Grupo 17" transform="translate(17.102 71.155)">
            <path id="Trazado_108" data-name="Trazado 108" class="cls-2" d="M136.088,248.95h-.7c-.139,0-.246-.071-.236-.16l.328-3c.01-.088.132-.161.272-.161h.7c.139,0,.246.072.236.161l-.328,3C136.35,248.879,136.228,248.95,136.088,248.95Z" transform="translate(-135.151 -245.626)"/>
            <path id="Trazado_109" data-name="Trazado 109" class="cls-2" d="M156.5,248.95h-.7c-.139,0-.246-.071-.237-.16l.329-3c.01-.088.131-.161.271-.161h.7c.139,0,.246.072.237.161l-.329,3C156.757,248.879,156.635,248.95,156.5,248.95Z" transform="translate(-139.013 -245.626)"/>
          </g>
        </g>
        <g id="Grupo_22" data-name="Grupo 22" transform="translate(0 94.413)">
          <g id="Grupo_19" data-name="Grupo 19" transform="translate(0 8.07)">
            <ellipse id="Elipse_11" data-name="Elipse 11" class="cls-16" cx="21.721" cy="1.576" rx="21.721" ry="1.576" transform="translate(0 106.154)"/>
            <path id="Trazado_110" data-name="Trazado 110" class="cls-17" d="M145.507,389.774a52.923,52.923,0,0,1-10.69-4.082c-.073-.042-.15-.073-.224-.111V368.207h7.73a2.314,2.314,0,1,0,0-4.628h-7.73V284.267h-4.629v79.312h-7.73a2.314,2.314,0,1,0,0,4.628h7.73v17.374c-.075.038-.151.069-.224.111a52.923,52.923,0,0,1-10.69,4.082,1.134,1.134,0,0,0,.318,2.223h25.82A1.134,1.134,0,0,0,145.507,389.774Z" transform="translate(-110.549 -284.267)"/>
          </g>
          <g id="Grupo_21" data-name="Grupo 21" transform="translate(3.113)">
            <rect id="Rectángulo_7" data-name="Rectángulo 7" class="cls-2" width="37.234" height="16.972" rx="5.18"/>
            <g id="Grupo_20" data-name="Grupo 20" transform="translate(3.935 16.972)">
              <path id="Trazado_111" data-name="Trazado 111" class="cls-2" d="M117.448,295.247v1.476c0,1.216,1.323,2.211,2.941,2.211h23.482c1.617,0,2.941-.995,2.941-2.211v-1.476Z" transform="translate(-117.448 -295.247)"/>
              <path id="Trazado_112" data-name="Trazado 112" class="cls-18" d="M117.448,295.247v1.476c0,1.216,1.323,2.211,2.941,2.211h23.482c1.617,0,2.941-.995,2.941-2.211v-1.476Z" transform="translate(-117.448 -295.247)"/>
            </g>
          </g>
        </g>
      </g>
    </g>
  </g>
</svg>
