<svg id="Capa_1" data-name="Capa 1" xmlns="http://www.w3.org/2000/svg" xmlns:xlink="http://www.w3.org/1999/xlink" viewBox="0 0 1011 1056"><defs><style>.cls-1{fill:none;}.cls-2{clip-path:url(#clip-path);}.cls-3{fill:#edeff1;}.cls-4{fill:#74acbe;}.cls-5{fill:#ffb93e;}.cls-6{fill:#82b378;}.cls-7{fill:#bc3f3f;}.cls-8{fill:#163560;}</style><clipPath id="clip-path"><circle class="cls-1" cx="-561.61" cy="466.47" r="459.47"/></clipPath></defs><g id="Grupo_99" data-name="Grupo 99"><circle id="Elipse_19" data-name="Elipse 19" class="cls-3" cx="500.14" cy="534.88" r="363.11"/><g id="Grupo_44" data-name="Grupo 44"><rect id="Rectángulo_233" data-name="Rectángulo 233" class="cls-4" x="85.66" y="284.1" width="829.4" height="501.39" rx="74.97" transform="matrix(0.97, -0.26, 0.26, 0.97, -121.42, 147.82)"/><path id="Rectángulo_234" data-name="Rectángulo 234" class="cls-5" d="M486.15,400.34l294.19-78.88a18.74,18.74,0,0,1,23,13.25h0a18.75,18.75,0,0,1-13.25,23l-294.2,78.88a18.75,18.75,0,0,1-23-13.25h0A18.74,18.74,0,0,1,486.15,400.34Z"/><path id="Rectángulo_235" data-name="Rectángulo 235" class="cls-3" d="M505.56,472.75l294.19-78.87a18.74,18.74,0,0,1,23,13.25h0a18.75,18.75,0,0,1-13.25,23L515.27,509a18.74,18.74,0,0,1-23-13.25h0A18.75,18.75,0,0,1,505.56,472.75Z"/><path id="Rectángulo_236" data-name="Rectángulo 236" class="cls-3" d="M525,545.17l294.19-78.88a18.75,18.75,0,0,1,23,13.25h0a18.74,18.74,0,0,1-13.25,23L534.69,581.38a18.74,18.74,0,0,1-23-13.25h0A18.74,18.74,0,0,1,525,545.17Z"/><path id="Rectángulo_237" data-name="Rectángulo 237" class="cls-6" d="M630.39,594.53l208.2-55.82A18.74,18.74,0,0,1,861.54,552h0a18.74,18.74,0,0,1-13.25,23L640.1,630.74a18.74,18.74,0,0,1-23-13.25h0A18.74,18.74,0,0,1,630.39,594.53Z"/><path id="Icon_ionic-md-contact" data-name="Icon ionic-md-contact" class="cls-3" d="M263.89,435.67A157.49,157.49,0,1,0,456.79,547,157.49,157.49,0,0,0,263.89,435.67Zm12.23,45.64a47.25,47.25,0,1,1-33.4,57.87A47.24,47.24,0,0,1,276.12,481.31ZM335,701A114.75,114.75,0,0,1,230.7,676.76c-7.43-30.62,48.2-63.49,78.62-71.64s95-7.53,103.91,22.7A114.92,114.92,0,0,1,335,701Z"/></g><circle id="Elipse_20" data-name="Elipse 20" class="cls-5" cx="265.87" cy="211.59" r="96.05"/><circle id="Elipse_21" data-name="Elipse 21" class="cls-7" cx="486.08" cy="174.11" r="58.57"/><circle id="Elipse_22" data-name="Elipse 22" class="cls-8" cx="640.7" cy="839.42" r="58.57"/></g></svg>